<?xml version="1.0" encoding="UTF-8"?>
<svg version="1.1" xmlns="http://www.w3.org/2000/svg" width="651" height="530">
<path d="M0 0 C214.83 0 429.66 0 651 0 C651 174.9 651 349.8 651 530 C436.17 530 221.34 530 0 530 C0 355.1 0 180.2 0 0 Z " fill="#FAF9F8" transform="translate(0,0)"/>
<path d="M0 0 C1.04356122 0.00464581 1.04356122 0.00464581 2.10820448 0.00938547 C2.84621405 0.00485435 3.58422361 0.00032324 4.3445971 -0.00434518 C6.83044764 -0.01705817 9.31608103 -0.0153644 11.80196059 -0.01371634 C13.57899696 -0.01969732 15.35603073 -0.02650186 17.13306105 -0.03407156 C21.96984761 -0.05178319 26.80656348 -0.05642912 31.64337933 -0.05770314 C35.67679805 -0.05959898 39.71020018 -0.06695292 43.74361253 -0.07404733 C53.25769929 -0.09034869 62.77174819 -0.09521471 72.28584731 -0.09379447 C82.10953706 -0.09259274 91.93300722 -0.11369675 101.75664139 -0.14528179 C110.18216274 -0.17140914 118.60761223 -0.18216324 127.0331738 -0.18088365 C132.06916104 -0.18037294 137.10495325 -0.18611551 142.14090025 -0.20723975 C146.87693875 -0.22656247 151.61259501 -0.22678767 156.34864676 -0.21220648 C158.08853584 -0.2101098 159.82844846 -0.21487015 161.56829703 -0.2269274 C163.94069543 -0.24230539 166.31176361 -0.23312249 168.68413222 -0.21766531 C169.37537825 -0.22795244 170.06662429 -0.23823957 170.77881718 -0.24883842 C174.11453285 -0.20069133 175.76148495 0.07007916 178.41310751 2.16501176 C180.15896822 4.45495304 181.06475441 6.38653011 181.97823012 9.11372507 C182.30959975 10.08894113 182.64096938 11.0641572 182.98238051 12.06892526 C183.3258351 13.12752756 183.66928969 14.18612985 184.02315199 15.276811 C184.38529799 16.3756965 184.74744399 17.474582 185.1205641 18.60676706 C186.34488809 22.36117877 187.54585491 26.12270652 188.74190199 29.886186 C189.19665908 31.31147148 189.65160505 32.7366967 190.10672438 34.16186655 C191.32743119 37.98643277 192.54533518 41.81188598 193.76262724 45.63754022 C194.78811173 48.85921067 195.81521076 52.08036542 196.84232104 55.30151784 C199.99255414 65.18114485 203.13782207 75.06234797 206.28113997 84.94417703 C206.99569031 87.19048079 207.71035912 89.43674681 208.4250685 91.68299997 C218.14405919 122.22979918 227.82276946 152.78920125 237.46593153 183.36003244 C242.75336398 200.12057861 248.07417449 216.87006642 253.42924941 233.60911691 C257.1429114 245.21885512 260.83612762 256.8347576 264.49971449 268.46040475 C264.88183089 269.6729342 265.26394728 270.88546365 265.65764296 272.13473642 C267.2039824 277.04242131 268.75009127 281.95017864 270.2955519 286.85814035 C275.86331591 304.53331841 281.5155717 322.17843653 287.31660903 339.77851999 C287.57091689 340.55344797 287.82522475 341.32837595 288.08723891 342.12678659 C288.55579283 343.55422322 289.02673821 344.98087806 289.50056899 346.40657175 C291.02315199 351.05170438 291.02315199 351.05170438 291.02315199 353.276811 C291.96921813 353.27220204 292.91528426 353.26759307 293.89001906 353.26284444 C316.91717683 353.15181284 339.94429986 353.06966624 362.97166884 353.01775014 C374.10757906 352.99197612 385.24331236 352.95684073 396.37910903 352.89961374 C406.08585634 352.84975446 415.79247552 352.81751416 425.49934733 352.80636853 C430.63841486 352.7998541 435.77711584 352.78455974 440.91606581 352.74816072 C445.75552124 352.71416152 450.59445998 352.70376603 455.4340235 352.7112726 C457.20772991 352.70989981 458.98145403 352.69999068 460.75505698 352.68078363 C477.39296834 352.50948007 477.39296834 352.50948007 482.60815871 356.68778837 C487.60389873 362.29795207 488.64788779 368.06345785 488.76924574 375.3783735 C488.79796263 376.30252054 488.82667952 377.22666757 488.85626662 378.17881906 C489.25694568 393.47513917 489.1326531 408.79092338 489.09181654 424.09101999 C489.08142084 428.40945567 489.07698482 432.72789756 489.07198012 437.04634225 C489.06138886 445.45651509 489.04441727 453.8666584 489.02315199 462.276811 C452.9794421 462.39126646 416.93576409 462.47936498 380.89190987 462.53213765 C376.63617778 462.53839115 372.38044605 462.54486277 368.12471449 462.55146921 C366.85386033 462.55343654 366.85386033 462.55343654 365.55733234 462.55544361 C351.84071205 462.57719753 338.1241966 462.61661897 324.40763849 462.66257498 C310.33217194 462.70934002 296.25676027 462.7371065 282.18121922 462.74725348 C273.49647649 462.75411256 264.81203005 462.77577261 256.12737852 462.81639334 C250.17120023 462.84283231 244.21517501 462.85080941 238.25894231 462.84431789 C234.82289589 462.84111673 231.38736707 462.8460079 227.9514128 462.87283838 C224.22283729 462.89770273 220.49553108 462.89173827 216.76692641 462.87808359 C215.68519982 462.89264779 214.60347324 462.907212 213.48896706 462.92221755 C206.77044538 462.85567988 202.19041912 461.71606108 197.02315199 457.276811 C195.2864424 455.0051893 195.2864424 455.0051893 194.2690016 452.68281686 C193.88283675 451.80954751 193.49667189 450.93627817 193.09880507 450.03654611 C191.26481372 445.33119043 189.62307047 440.59207759 188.08955824 435.78071725 C187.7303076 434.67606622 187.37105696 433.57141519 187.00091994 432.43328989 C185.85508214 428.90431457 184.72008072 425.37196827 183.58565199 421.839311 C182.86047357 419.59883923 182.13456583 417.35860339 181.40791762 415.11860788 C178.94162495 407.50619804 176.48267689 399.89141016 174.02315199 392.276811 C169.40315199 378.086811 164.78315199 363.896811 160.02315199 349.276811 C111.84315199 349.276811 63.66315199 349.276811 14.02315199 349.276811 C6.88730955 372.14624273 6.88730955 372.14624273 0.16377699 395.12446725 C-0.23685449 396.53415365 -0.63801413 397.94369003 -1.03965318 399.35308969 C-2.69246187 405.1554535 -4.33794036 410.95986974 -5.97635972 416.76631296 C-6.99846694 420.38716993 -8.02780508 424.00590966 -9.06145036 427.62348878 C-9.445254 428.97204564 -9.82640653 430.32136059 -10.20456254 431.67151201 C-17.07113252 456.18201658 -17.07113252 456.18201658 -24.97684801 461.276811 C-27.3251907 462.45098235 -28.70042279 462.40010152 -31.3174547 462.39706552 C-32.22893266 462.39844018 -33.14041063 462.39981485 -34.07950914 462.40123117 C-35.08219835 462.39763589 -36.08488756 462.39404062 -37.11796129 462.39033639 C-38.17163896 462.39048242 -39.22531663 462.39062845 -40.31092393 462.3907789 C-43.80635681 462.39008021 -47.3017369 462.38228981 -50.79716051 462.37446725 C-53.21568845 462.37260292 -55.63421677 462.37117909 -58.05274522 462.37017953 C-64.42813215 462.36635556 -70.80349642 462.35652629 -77.17887437 462.34547555 C-83.68053955 462.33525885 -90.18220837 462.33068136 -96.68387926 462.32563913 C-109.44821186 462.31490393 -122.21252873 462.2980203 -134.97684801 462.276811 C-135.79853402 458.93551867 -136.09622478 456.63419575 -135.11014879 453.33223093 C-134.7790133 452.19161455 -134.7790133 452.19161455 -134.44118822 451.02795541 C-134.18740907 450.19613245 -133.93362993 449.36430948 -133.67216051 448.50727975 C-133.27390817 447.15023683 -133.27390817 447.15023683 -132.86761034 445.7657789 C-132.27481484 443.74948575 -131.67694401 441.73467997 -131.07483995 439.72114694 C-129.32855531 433.87591604 -127.62357267 428.01854486 -125.91044176 422.16352975 C-125.52244842 420.84127613 -125.13439069 419.5190414 -124.74627244 418.19682443 C-119.70854713 401.01753271 -114.83918308 383.7900812 -109.95552003 366.56650674 C-108.89261922 362.81868733 -107.82873683 359.07114684 -106.76486814 355.32360208 C-91.41817486 301.26226602 -76.10314543 247.19151576 -60.9381212 193.07890451 C-53.96563838 168.20017122 -46.94072092 143.33629495 -39.91593969 118.47228944 C-38.63537229 113.93970717 -37.35490256 109.4070973 -36.07450426 104.87446725 C-35.82103164 103.97718282 -35.56755903 103.07989839 -35.30640543 102.15542352 C-31.56352276 88.90480829 -27.82793986 75.6521524 -24.09794176 62.39790475 C-23.62946979 60.73345475 -23.16099449 59.06900568 -22.69251573 57.40455759 C-20.71053061 50.36238398 -18.72903503 43.32007394 -16.74952924 36.27720296 C-15.95311494 33.44426288 -15.15601867 30.61151498 -14.35876215 27.77881181 C-13.82299772 25.87430141 -13.28814048 23.96953587 -12.75332201 22.06475961 C-11.83428757 18.80023504 -10.90662966 15.53828758 -9.97684801 12.276811 C-9.70208635 11.29127237 -9.42732469 10.30573373 -9.14423692 9.29033029 C-8.88637407 8.38827859 -8.62851121 7.4862269 -8.36283433 6.5568403 C-8.14210756 5.77391107 -7.92138078 4.99098184 -7.69396532 4.18432748 C-6.15056721 0.07892203 -4.03719826 0.0411947 0 0 Z " fill="#091E2B" transform="translate(147.97684800624847,41.723188996315)"/>
<path d="M0 0 C0.90844605 -0.00170885 1.81689209 -0.0034177 2.7528668 -0.00517833 C5.7853227 -0.0084626 8.81755546 0.00251297 11.84999084 0.01345825 C14.02833552 0.0140226 16.20668057 0.01370535 18.38502502 0.01257324 C24.29148032 0.01199963 30.19785431 0.02375537 36.10429072 0.03772116 C42.27957544 0.05022708 48.45486204 0.05139891 54.63015747 0.05377197 C66.32075312 0.05998714 78.01131135 0.07639848 89.70189053 0.09647095 C103.01255716 0.11882879 116.32322179 0.1298231 129.63390338 0.13986182 C157.01202425 0.16076465 184.39011189 0.19594138 211.76820374 0.24050903 C211.88419839 12.4887029 211.97297064 24.73676548 212.0272646 36.98539734 C212.05332679 42.67333416 212.08866385 48.36089439 212.145401 54.0486145 C212.19984017 59.54051399 212.22964967 65.03205189 212.24258995 70.52420044 C212.25180839 72.61654347 212.26981003 74.70886735 212.29685402 76.80105591 C212.3333021 79.73833541 212.33814244 82.6741325 212.33583069 85.61160278 C212.36279526 86.90093971 212.36279526 86.90093971 212.39030457 88.21632385 C212.33831319 94.34593618 210.71712675 98.51681653 206.76820374 103.24050903 C202.43007114 106.62425246 198.99021909 108.3599849 193.49957275 108.37854004 C192.19378517 108.38672005 192.19378517 108.38672005 190.86161804 108.39506531 C189.43322098 108.3966288 189.43322098 108.3966288 187.97596741 108.39822388 C186.97079575 108.4033046 185.96562408 108.40838531 184.92999268 108.41362 C182.7446804 108.42432843 180.55935712 108.43294675 178.37402916 108.43973923 C174.91497422 108.45151872 171.45604467 108.47096933 167.99703979 108.49285889 C158.16128205 108.55450642 148.32553688 108.60852546 138.48963928 108.64187622 C132.47550016 108.66281892 126.46158915 108.69811992 120.44758034 108.74263382 C118.15550229 108.75679784 115.86338388 108.76551716 113.57126427 108.7686882 C110.36347456 108.77359566 107.15629037 108.79675039 103.94862366 108.82400513 C103.00243164 108.82099899 102.05623962 108.81799286 101.08137512 108.81489563 C95.89364711 108.88036595 92.25122928 109.33624598 87.76820374 112.24050903 C72.5982873 128.2531986 81.76820374 157.73158084 81.76820374 175.24050903 C146.61320374 175.73550903 146.61320374 175.73550903 212.76820374 176.24050903 C212.85070374 191.25550903 212.93320374 206.27050903 213.01820374 221.74050903 C213.05461975 226.47072388 213.09103577 231.20093872 213.1285553 236.07449341 C213.1466217 241.87820435 213.1466217 241.87820435 213.14997864 244.60049438 C213.15609618 246.49018121 213.17011306 248.37985301 213.19050598 250.2694397 C213.21994347 253.1422309 213.22382263 256.01407316 213.2223053 258.88699341 C213.23669773 259.72009789 213.25109016 260.55320236 213.26591873 261.41155243 C213.22164774 267.70673216 211.71026588 273.05397116 207.35615921 277.76988983 C202.91483458 281.68762575 198.67950958 283.4804349 192.80108643 283.51898193 C191.33933487 283.53572716 191.33933487 283.53572716 189.84805298 283.55281067 C188.26201515 283.55605095 188.26201515 283.55605095 186.64393616 283.55935669 C185.52154541 283.56940231 184.39915466 283.57944794 183.24275208 283.58979797 C179.53639737 283.62066515 175.83011503 283.63767521 172.12367249 283.65457153 C169.55248389 283.6732803 166.98130144 283.6928535 164.41012573 283.71325684 C158.33648016 283.75936658 152.2628383 283.79676379 146.1891101 283.82992971 C139.2725023 283.86818518 132.35598806 283.91758633 125.4394592 283.96791387 C111.21577188 284.07116213 96.99203171 284.15897433 82.76820374 284.24050903 C82.43820374 297.77050903 82.10820374 311.30050903 81.76820374 325.24050903 C81.10820374 325.24050903 80.44820374 325.24050903 79.76820374 325.24050903 C66.46075679 283.99883628 53.34262731 242.70039241 40.34719849 201.35925293 C39.21507908 197.75790659 38.08260364 194.15667235 36.9500885 190.55545044 C35.5571051 186.12592058 34.16578634 181.69587377 32.77577209 177.26541138 C29.00656576 165.26472722 25.18044736 153.2834007 21.31128883 141.31458282 C16.38621065 126.07922975 11.51801045 110.8259331 6.65792847 95.5697403 C5.94355254 93.32736733 5.22900879 91.08504791 4.51441956 88.84274292 C1.26385031 78.64258091 -1.98475705 68.44179529 -5.23179626 58.24050903 C-5.80519745 56.43912476 -5.80519745 56.43912476 -6.3901825 54.60134888 C-8.31580785 48.55096436 -10.24007365 42.50015129 -12.16157532 36.44845581 C-12.70164986 34.74771431 -13.24202696 33.04706886 -13.7827301 31.3465271 C-14.51157633 29.05370137 -15.23909784 26.76045995 -15.96617126 24.46707153 C-16.36030212 23.22522095 -16.75443298 21.98337036 -17.1605072 20.70388794 C-20.831194 8.83689547 -20.831194 8.83689547 -20.23179626 5.24050903 C-15.13672081 -0.26217245 -6.93506257 -0.04812509 0 0 Z " fill="#091E2B" transform="translate(370.23179626464844,41.759490966796875)"/>
<path d="M0 0 C0.99 0.33 1.98 0.66 3 1 C4.01856383 3.48237132 4.8274133 5.84931876 5.58105469 8.4140625 C5.82100536 9.19468394 6.06095604 9.97530539 6.30817795 10.77958202 C7.10777408 13.3913126 7.88970864 16.00800154 8.671875 18.625 C9.23169945 20.46544482 9.7926331 22.30555256 10.35461426 24.14533997 C11.85713428 29.07491933 13.34471028 34.00888982 14.82923889 38.94391251 C16.3556531 44.01021618 17.89452812 49.07272904 19.43261719 54.13549805 C21.26152307 60.15823799 23.08910584 66.18136469 24.91021729 72.20646667 C28.28365508 83.36580227 31.68910424 94.51395837 35.15625 105.64453125 C35.87274853 107.95116343 36.58922137 110.2578036 37.30566406 112.56445312 C38.26820366 115.6619186 39.23303808 118.75855369 40.20593262 121.8527832 C41.06689619 124.59353441 41.91751774 127.33728016 42.765625 130.08203125 C43.13693542 131.24748222 43.13693542 131.24748222 43.51574707 132.43647766 C45.11394716 137.65815852 45.11394716 137.65815852 44 141 C15.95 141 -12.1 141 -41 141 C-39.87511111 133.1257778 -39.87511111 133.1257778 -38.91870117 129.89404297 C-38.70227966 129.15366791 -38.48585815 128.41329285 -38.26287842 127.65048218 C-38.02530823 126.85574493 -37.78773804 126.06100769 -37.54296875 125.2421875 C-37.28791565 124.37389313 -37.03286255 123.50559875 -36.77008057 122.61099243 C-35.91350216 119.69771534 -35.05038228 116.78641556 -34.1875 113.875 C-32.91976787 109.57093155 -31.65543125 105.26586652 -30.390625 100.9609375 C-30.0495018 99.80168762 -29.7083786 98.64243774 -29.35691833 97.44805908 C-26.47712485 87.65266052 -23.63238304 77.84735536 -20.796875 68.0390625 C-20.34902968 66.49046683 -19.90117913 64.94187268 -19.45332336 63.39328003 C-17.67688748 57.24980945 -15.90096629 51.1061911 -14.12753296 44.96185303 C-13.07551858 41.31723066 -12.02181019 37.67310161 -10.96703339 34.0292778 C-10.57946992 32.68923387 -10.19250978 31.34901525 -9.80625153 30.00859451 C-7.69848145 22.69473944 -5.53561898 15.39938255 -3.28930664 8.12695312 C-2.96950789 7.08147938 -2.96950789 7.08147938 -2.64324856 6.01488495 C-1.11736495 1.11736495 -1.11736495 1.11736495 0 0 Z " fill="#F9F9F8" transform="translate(234,150)"/>
<path d="M0 0 C59.4 0 118.8 0 180 0 C180.33 0.99 180.66 1.98 181 3 C180.08632282 3.00238835 179.17264565 3.00477671 178.23128128 3.00723743 C156.01487648 3.06633482 133.79858063 3.14185106 111.58229446 3.23571491 C100.83872711 3.28070922 90.09519317 3.32011547 79.3515625 3.34643555 C69.989052 3.36938621 60.62664693 3.40275131 51.26422 3.44870156 C46.30539549 3.47267338 41.34667566 3.49137618 36.38779449 3.49761391 C31.72236987 3.50364689 27.05721323 3.52358175 22.39188766 3.55427551 C20.67782576 3.56308448 18.96372887 3.56677243 17.24964523 3.56500816 C14.91231373 3.56336169 12.57580526 3.58000009 10.23858643 3.60127258 C8.27516737 3.60818603 8.27516737 3.60818603 6.27208328 3.61523914 C2.84794736 4.01787971 1.46086821 4.6544303 -1 7 C-0.67 4.69 -0.34 2.38 0 0 Z " fill="#18252C" transform="translate(143,42)"/>
<path d="M0 0 C59.73 0 119.46 0 181 0 C181 0.33 181 0.66 181 1 C180.08632282 1.00238835 179.17264565 1.00477671 178.23128128 1.00723743 C156.01487648 1.06633482 133.79858063 1.14185106 111.58229446 1.23571491 C100.83872711 1.28070922 90.09519317 1.32011547 79.3515625 1.34643555 C69.989052 1.36938621 60.62664693 1.40275131 51.26422 1.44870156 C46.30539549 1.47267338 41.34667566 1.49137618 36.38779449 1.49761391 C31.72236987 1.50364689 27.05721323 1.52358175 22.39188766 1.55427551 C20.67782576 1.56308448 18.96372887 1.56677243 17.24964523 1.56500816 C14.91231373 1.56336169 12.57580526 1.58000009 10.23858643 1.60127258 C8.27516737 1.60818603 8.27516737 1.60818603 6.27208328 1.61523914 C2.84794736 2.01787971 1.46086821 2.6544303 -1 5 C-0.67 3.35 -0.34 1.7 0 0 Z " fill="#102C3D" transform="translate(143,44)"/>
<path d="M0 0 C1.28805074 4.2098107 0.3839742 6.79975876 -0.9375 11 C-2.1759362 14.96299585 -3 17.82807195 -3 22 C10.45625841 22.06951274 23.9124741 22.12281791 37.3688755 22.15543652 C43.61723803 22.17109186 49.86547771 22.19232808 56.11376953 22.22631836 C62.14379458 22.25891598 68.17370147 22.276854 74.20380783 22.28463173 C76.50430537 22.29017447 78.80479645 22.30099803 81.10524368 22.31719017 C84.32762882 22.33896935 87.54952575 22.34196666 90.77197266 22.34057617 C92.19833038 22.35675491 92.19833038 22.35675491 93.65350342 22.3732605 C98.85420221 22.34897978 102.52227749 21.95234661 107 19 C110.5017512 14.69784853 112.21361044 10.18052971 114 5 C114.97378856 7.59676951 115.07793264 8.76842873 114.1796875 11.4375 C111.29061952 17.11183712 108.86178817 21.06910591 103 24 C101.55550033 24.09196252 100.10681639 24.12193366 98.65939331 24.12025452 C97.74791534 24.12162918 96.83643738 24.12300385 95.89733887 24.12442017 C94.89464966 24.12082489 93.89196045 24.11722961 92.85888672 24.11352539 C91.80520905 24.11367142 90.75153137 24.11381744 89.66592407 24.1139679 C86.1704912 24.1132692 82.6751111 24.10547881 79.1796875 24.09765625 C76.76115956 24.09579192 74.34263124 24.09436809 71.92410278 24.09336853 C65.54871585 24.08954456 59.17335159 24.07971529 52.79797363 24.06866455 C46.29630846 24.05844785 39.79463963 24.05387035 33.29296875 24.04882812 C20.52863614 24.03809293 7.76431928 24.0212093 -5 24 C-5.84088835 20.24385037 -6.01003311 18.03009934 -4.78515625 14.35546875 C-4.51123047 13.51435547 -4.23730469 12.67324219 -3.95507812 11.80664062 C-3.51325195 10.51016602 -3.51325195 10.51016602 -3.0625 9.1875 C-2.77181641 8.30384766 -2.48113281 7.42019531 -2.18164062 6.50976562 C-1.46492164 4.33610968 -0.73747903 2.16668224 0 0 Z " fill="#010101" transform="translate(18,480)"/>
<path d="M0 0 C0.33 0 0.66 0 1 0 C1 13.53 1 27.06 1 41 C0.34 41 -0.32 41 -1 41 C-1.66 38.03 -2.32 35.06 -3 32 C-2.67 32 -2.34 32 -2 32 C-1.97494385 31.06615479 -1.9498877 30.13230957 -1.92407227 29.17016602 C-1.82913072 25.71674811 -1.72988742 22.2635104 -1.62768555 18.81030273 C-1.58428187 17.31360731 -1.54261087 15.81686061 -1.50268555 14.32006836 C-1.44511384 12.17285688 -1.38138284 10.02590479 -1.31640625 7.87890625 C-1.27974854 6.5854126 -1.24309082 5.29191895 -1.20532227 3.95922852 C-1 1 -1 1 0 0 Z " fill="#000103" transform="translate(451,326)"/>
<path d="M0 0 C1.59005382 4.01013572 0.32609774 6.95099803 -0.9375 10.9375 C-2.25517528 15.11386064 -3.27512564 18.6063269 -3 23 C-3.99 23 -4.98 23 -6 23 C-5.38334864 17.60607261 -4.12077204 12.71604717 -2.4375 7.5625 C-2.20353516 6.83095703 -1.96957031 6.09941406 -1.72851562 5.34570312 C-1.15732778 3.56219821 -0.57936877 1.78086417 0 0 Z " fill="#080A0D" transform="translate(18,480)"/>
<path d="M0 0 C2 2 2 2 2 5 C2.66 5 3.32 5 4 5 C6.03165952 9.33420699 6.52060632 13.28596212 7 18 C6.34 18.33 5.68 18.66 5 19 C4.16142312 16.39741676 3.32896656 13.79314353 2.5 11.1875 C2.14228516 10.08051758 2.14228516 10.08051758 1.77734375 8.95117188 C0.80059864 5.86744804 0 3.25504191 0 0 Z " fill="#0D151C" transform="translate(409,235)"/>
<path d="M0 0 C1 2 1 2 1 3 C1.65035814 4.34136367 2.3162955 5.67532254 3 7 C-1.75 11.875 -1.75 11.875 -4 13 C-3.71682074 11.39431334 -3.42312209 9.79047953 -3.125 8.1875 C-2.96257812 7.29417969 -2.80015625 6.40085938 -2.6328125 5.48046875 C-2 3 -2 3 0 0 Z " fill="#071119" transform="translate(102,186)"/>
<path d="M0 0 C0.99 0 1.98 0 3 0 C3.36552803 1.41377782 3.71695495 2.83120576 4.0625 4.25 C4.25972656 5.03890625 4.45695312 5.8278125 4.66015625 6.640625 C5.01497267 9.10394822 4.76877544 10.65604132 4 13 C3.32942113 11.2097939 2.6636531 9.41778511 2 7.625 C1.62875 6.62726563 1.2575 5.62953125 0.875 4.6015625 C0 2 0 2 0 0 Z " fill="#0E171D" transform="translate(320,426)"/>
<path d="M0 0 C0.33 0 0.66 0 1 0 C1 4.95 1 9.9 1 15 C0.01 15.495 0.01 15.495 -1 16 C-1.33 14.02 -1.66 12.04 -2 10 C-1.67 10 -1.34 10 -1 10 C-0.67 6.7 -0.34 3.4 0 0 Z " fill="#050B12" transform="translate(450,348)"/>
<path d="M0 0 C0 3.38023517 -0.87455622 5.83468937 -2 9 C-2.99 9 -3.98 9 -5 9 C-4.50769231 3.46153846 -4.50769231 3.46153846 -1.9375 1.125 C-1.298125 0.75375 -0.65875 0.3825 0 0 Z " fill="#112635" transform="translate(455,152)"/>
<path d="M0 0 C1.125 1.5 1.125 1.5 2 4 C1.57598348 6.7773082 0.81108065 9.29639783 0 12 C-0.33 12 -0.66 12 -1 12 C-1.02712066 10.56260487 -1.04645067 9.12506137 -1.0625 7.6875 C-1.07410156 6.88699219 -1.08570313 6.08648437 -1.09765625 5.26171875 C-1 3 -1 3 0 0 Z " fill="#09151D" transform="translate(214,206)"/>
<path d="M0 0 C3.77545388 1.09068668 6.47043472 1.9083091 9 5 C5.13304322 5 2.4911548 3.58090029 -1 2 C-0.67 1.34 -0.34 0.68 0 0 Z " fill="#0D1115" transform="translate(622,395)"/>
</svg>
