<?xml version="1.0" encoding="UTF-8" standalone="no"?>
<svg
   version="1.1"
   width="1024"
   height="1024"
   viewBox="0 0 1024 1024"
   id="svg16"
   xml:space="preserve"
   sodipodi:docname="logo2.svg"
   inkscape:version="1.4.2 (f4327f4, 2025-05-13)"
   xmlns:inkscape="http://www.inkscape.org/namespaces/inkscape"
   xmlns:sodipodi="http://sodipodi.sourceforge.net/DTD/sodipodi-0.dtd"
   xmlns="http://www.w3.org/2000/svg"
   xmlns:svg="http://www.w3.org/2000/svg"><sodipodi:namedview
     id="namedview1"
     pagecolor="#ffffff"
     bordercolor="#000000"
     borderopacity="0.25"
     inkscape:showpageshadow="2"
     inkscape:pageopacity="0.0"
     inkscape:pagecheckerboard="0"
     inkscape:deskcolor="#d1d1d1"
     inkscape:zoom="0.28622633"
     inkscape:cx="29.696779"
     inkscape:cy="529.30141"
     inkscape:window-width="1920"
     inkscape:window-height="1009"
     inkscape:window-x="-8"
     inkscape:window-y="-8"
     inkscape:window-maximized="1"
     inkscape:current-layer="svg16" /><defs
     id="defs3"><style
       id="style3">
			.logo path { fill:#FCFCFC; }
		</style></defs><!-- Rounded gradient app-icon background (square) --><!-- Original logo, centered and scaled into the square --><g
     id="g17"
     transform="matrix(0.82083325,0,0,0.90942192,233.1893,285.33707)"
     style="fill:#030303;fill-opacity:1"><path
       id="path21"
       style="fill:#030303;fill-opacity:1"
       d="m 318.75546,41.475211 -2.09368,0.02959 c -2.37237,-0.01546 -4.7437,-0.02392 -7.1161,-0.0085 -1.73985,0.01206 -3.48079,0.01618 -5.22068,0.01409 -4.73605,-0.01458 -9.47214,-0.01336 -14.20818,0.0056 -5.03595,0.02112 -10.07033,0.02728 -15.10632,0.02678 -8.42556,-0.0013 -16.85182,0.0091 -25.27734,0.03523 -9.82363,0.03158 -19.64702,0.05334 -29.47071,0.05214 -9.5141,-0.0014 -19.02842,0.002 -28.54251,0.01832 -4.03341,0.0071 -8.06606,0.01501 -12.09948,0.01691 -4.83681,0.0013 -9.67329,0.0048 -14.51007,0.02255 -1.77703,0.0076 -3.55479,0.01657 -5.33182,0.02255 -2.48588,-0.0016 -4.97119,-0.0042 -7.45704,0.0085 l -2.23636,0.01409 -2.1087,-0.0099 c -4.03719,0.0412 -6.15099,0.0787 -7.69434,4.183952 l -0.66685,2.373113 -0.7825,2.732463 -0.83357,2.98753 c -0.92978,3.261477 -1.85651,6.522455 -2.77555,9.78698 -0.53481,1.904776 -1.0698,3.811254 -1.60556,5.715765 -0.79726,2.832703 -1.59464,5.66461 -2.39105,8.49755 -1.97951,7.042871 -3.95963,14.086146 -5.94161,21.12832 -0.46848,1.664456 -0.93883,3.328386 -1.4073,4.992836 -3.73,13.25425 -7.46444,26.50609 -11.20733,39.7567 -0.26115,0.92448 -0.51551,1.82249 -0.76899,2.71978 -1.2804,4.53263 -2.55985,9.0635 -3.84041,13.59608 -7.02478,24.864 -14.049914,49.72779 -21.022397,74.60652 -15.165024,54.11262 -30.479934,108.1841 -45.826629,162.24543 -1.06387,3.74755 -2.128683,7.49488 -3.191583,11.2427 -4.88366,17.22357 -9.753203,34.45143 -14.790923,51.63072 -0.38812,1.32222 -0.775999,2.64468 -1.163989,3.96693 -1.71313,5.85501 -3.417326,11.71215 -5.163606,17.55738 -0.6021,2.01353 -1.200494,4.02782 -1.793294,6.04411 -0.4063,1.38446 -0.405278,1.38529 -0.803528,2.74233 -0.26147,0.85703 -0.515204,1.68925 -0.768984,2.52108 -0.33782,1.16365 -0.338717,1.16344 -0.669857,2.30406 -0.98607,3.30197 -0.689511,5.60298 0.132169,8.94427 12.76432,0.0212 25.530161,0.0372 38.294492,0.0479 6.501671,0.005 13.003789,0.011 19.505455,0.0211 6.375378,0.0111 12.750081,0.02 19.125468,0.024 2.418528,10e-4 4.835754,0.002 7.254281,0.004 3.495415,0.008 6.990985,0.0162 10.486415,0.0169 1.08561,-1.5e-4 2.14092,-10e-4 3.19459,-10e-4 1.03308,0.004 2.03419,0.007 3.03688,0.0113 0.9391,-0.001 1.85206,-0.002 2.76354,-0.003 2.61703,0.003 3.99276,0.0525 6.34111,-1.12173 7.90571,-5.09479 7.90483,-5.09281 14.7714,-29.60332 0.37816,-1.35015 0.75916,-2.70011 1.14296,-4.04867 1.03365,-3.61758 2.06285,-7.23712 3.08495,-10.85798 1.63842,-5.80644 3.284,-11.60987 4.93681,-17.41223 0.40164,-1.4094 0.80392,-2.81937 1.20455,-4.22905 6.72353,-22.97823 6.72388,-22.97929 13.85973,-45.84872 H 308.0002 l 13.99941,43.00071 c 2.45953,7.6146 4.91865,15.22951 7.38495,22.84192 0.72665,2.23999 1.45261,4.48147 2.17779,6.72194 1.13443,3.53266 2.26953,7.06266 3.41537,10.59164 0.37014,1.13813 0.72964,2.24505 1.08889,3.3497 1.53351,4.81136 3.17491,9.54882 5.00891,14.25418 0.39786,0.89973 0.78383,1.77323 1.16999,2.6465 1.01744,2.32237 1.01782,2.32241 2.75453,4.59403 5.16727,4.43925 9.74704,5.57881 16.46556,5.64531 1.1145,-0.015 2.19697,-0.0291 3.2787,-0.0437 3.7286,0.0139 7.45624,0.0211 11.18481,-0.004 3.43596,-0.0265 6.87014,-0.0312 10.30618,-0.0282 5.95624,0.007 11.91368,-0.001 17.86986,-0.0282 8.68465,-0.0406 17.3676,-0.0635 26.05234,-0.0705 14.07554,-0.0102 28.15105,-0.0377 42.22652,-0.0846 13.71656,-0.0459 27.43453,-0.0853 41.15115,-0.1071 1.29653,-0.002 1.29443,1e-4 2.56528,-0.003 4.25574,-0.007 8.5121,-0.0137 12.76783,-0.0197 36.04385,-0.0528 72.08713,-0.14061 108.13084,-0.25507 0.0212,-8.41015 0.039,-16.82036 0.0496,-25.23054 0.005,-4.31844 0.0106,-8.63645 0.021,-12.95489 0.0408,-15.3001 0.16488,-30.61581 -0.2358,-45.91213 -0.0296,-0.95215 -0.0599,-1.87596 -0.0886,-2.80011 -0.12136,-7.31491 -1.16364,-13.08022 -6.15938,-18.69038 -5.21519,-4.17831 -5.21655,-4.1791 -21.85446,-4.0078 -1.77361,0.0192 -3.5461,0.03 -5.31981,0.031 -4.83956,-0.007 -9.67963,0.002 -14.51908,0.0366 -5.13895,0.0364 -10.27816,0.0508 -15.41722,0.0578 -9.70687,0.0111 -19.4125,0.0431 -29.11925,0.093 -11.1358,0.0572 -22.27133,0.094 -33.40724,0.11978 -23.02737,0.0519 -46.05372,0.13417 -69.08088,0.2452 -0.97474,0.005 -1.9226,0.008 -2.86867,0.0127 0,-2.22511 10e-4,-2.22478 -1.52145,-6.86991 -0.47383,-1.42569 -0.94476,-2.85235 -1.41331,-4.27978 -0.26202,-0.79841 -0.51768,-1.57423 -0.77199,-2.34916 -5.80104,-17.60008 -11.452,-35.24497 -17.01977,-52.92015 -1.54546,-4.90796 -3.0931,-9.81577 -4.63944,-14.72345 -0.39369,-1.24928 -0.77435,-2.46129 -1.15647,-3.67382 -3.66358,-11.62564 -7.35701,-23.24149 -11.07067,-34.85123 -5.35508,-16.73905 -10.67499,-33.48773 -15.96242,-50.24828 -9.64316,-30.57083 -19.32367,-61.13232 -29.04266,-91.67912 -0.71471,-2.24625 -1.42869,-4.49115 -2.14324,-6.73745 -3.14332,-9.88183 -6.28784,-19.76316 -9.43807,-29.642781 -1.02711,-3.221153 -2.05496,-6.442707 -3.08044,-9.664378 -1.21729,-3.825654 -2.43497,-7.65065 -3.65568,-11.475216 -0.45511,-1.42517 -0.91049,-2.850265 -1.36525,-4.27555 -1.19605,-3.763479 -2.3968,-7.524923 -3.62113,-11.279335 -0.37312,-1.132185 -0.73575,-2.231084 -1.0979,-3.329969 -0.35386,-1.090681 -0.69587,-2.150173 -1.03933,-3.208776 -0.34141,-1.004768 -0.67342,-1.979901 -1.00479,-2.955118 -0.91348,-2.727195 -1.8197,-4.658885 -3.56556,-6.948826 -2.65163,-2.094933 -4.29856,-2.364425 -7.63427,-2.412572 z m -84.75493,108.524849 2.99934,1.00054 c 1.01856,2.48237 1.82816,4.84912 2.5818,7.41387 l 0.72693,2.36466 c 0.7996,2.61173 1.58186,5.22949 2.36402,7.84649 0.55983,1.84044 1.12018,3.6801 1.68216,5.51988 1.50252,4.92958 2.98969,9.86312 4.47422,14.79814 1.52641,5.06631 3.0653,10.12854 4.60339,15.19131 1.82891,6.02274 3.6564,12.04664 5.47751,18.07174 3.37344,11.15933 6.77896,22.30722 10.24611,33.43779 0.7165,2.30663 1.4328,4.61399 2.14925,6.92064 0.96254,3.09747 1.92731,6.19389 2.90021,9.28812 0.86096,2.74075 1.71267,5.48364 2.56077,8.22839 l 0.74946,2.35479 c 1.5982,5.22168 1.59757,5.22195 0.48362,8.56379 h -84.99975 c 1.12489,-7.87422 1.12526,-7.87426 2.08167,-11.106 0.21642,-0.74037 0.43336,-1.48066 0.65634,-2.24347 0.23757,-0.79474 0.47465,-1.58952 0.71942,-2.40834 0.25505,-0.8683 0.51071,-1.73639 0.77349,-2.631 0.85658,-2.91327 1.71892,-5.82429 2.5818,-8.73571 1.26773,-4.30407 2.53205,-8.6105 3.79686,-12.91543 l 1.03332,-3.51176 c 2.87979,-9.7954 5.72544,-19.60056 8.56095,-29.40885 0.44785,-1.5486 0.89486,-3.09758 1.34272,-4.64617 1.77644,-6.14347 3.55238,-12.28675 5.32581,-18.43109 1.05202,-3.64462 2.10677,-7.28885 3.16155,-10.93267 0.38756,-1.34004 0.77473,-2.68006 1.16098,-4.02048 2.10777,-7.31386 4.27053,-14.60982 6.51684,-21.88225 l 0.64583,-2.11241 c 1.52588,-4.89752 1.52601,-4.89715 2.64338,-6.01452 z" /><path
       d="m 372.98436,41.754642 -2.75319,0.0043 c -6.93506,-0.04813 -15.1355,-0.261591 -20.23058,5.241091 -0.59939,3.596386 -0.60005,3.596594 3.07064,15.463586 l 1.19413,3.763313 c 0.72708,2.293388 1.45472,4.586734 2.18356,6.87956 0.54071,1.700542 1.08128,3.40118 1.62136,5.101922 1.9215,6.051695 3.84627,12.101897 5.7719,18.152282 l 1.15853,3.639924 c 3.24704,10.20128 6.49536,20.40132 9.74593,30.60148 0.71458,2.24231 1.42913,4.48511 2.1435,6.72748 4.86009,15.25619 9.72793,30.50979 14.65301,45.74514 3.86916,11.96882 7.69593,23.94917 11.46518,35.95018 1.39001,4.43046 2.7813,8.86044 4.17428,13.28997 1.13252,3.60122 2.26486,7.20222 3.39698,10.80356 12.99543,41.34114 26.11237,82.64062 39.41981,123.88229 h 2.00111 l 0.99981,-41.00045 c 14.22382,-0.0815 28.44773,-0.16936 42.67142,-0.27261 6.91653,-0.0503 13.83315,-0.0994 20.74976,-0.13774 6.07373,-0.0332 12.14693,-0.0701 18.22058,-0.11621 2.57117,-0.0204 5.14248,-0.0401 7.71367,-0.0588 3.70645,-0.0169 7.4132,-0.0351 11.11955,-0.066 1.1564,-0.0103 2.27755,-0.0201 3.39994,-0.0301 1.61808,-0.004 1.61811,-0.004 3.20414,-0.007 1.49128,-0.017 1.49169,-0.0162 2.95345,-0.033 5.87842,-0.0385 10.11377,-1.83125 14.5551,-5.74899 4.35411,-4.71592 5.86555,-10.06368 5.90985,-16.35886 -0.0148,-0.85835 -0.0286,-1.69059 -0.043,-2.5237 10e-4,-2.87292 -0.003,-5.74567 -0.0326,-8.61846 -0.0204,-1.88959 -0.0341,-3.77896 -0.0401,-5.66865 -0.003,-2.72229 -0.004,-2.72292 -0.0222,-8.52663 -0.0376,-4.87355 -0.0734,-9.60281 -0.10977,-14.33302 l -0.2507,-45.49979 -130.99885,-1.00001 c 0,-17.50893 -9.17106,-46.98801 5.99886,-63.0007 4.48302,-2.90426 8.12576,-3.36065 13.31349,-3.42615 0.97486,0.003 1.92122,0.007 2.86741,0.01 3.20767,-0.0272 6.41501,-0.051 9.6228,-0.056 2.29212,-0.003 4.58495,-0.0116 6.87703,-0.0258 6.01401,-0.0446 12.02695,-0.0795 18.04109,-0.10044 9.8359,-0.0333 19.67199,-0.0875 29.50775,-0.14921 3.459,-0.0219 6.9173,-0.0413 10.37636,-0.0531 2.18533,-0.007 4.37131,-0.0151 6.55662,-0.0258 1.03563,-0.005 2.04025,-0.0108 3.04542,-0.0158 1.45725,-0.001 1.45829,-4.8e-4 2.88669,-0.003 1.33217,-0.008 1.3317,-0.009 2.63748,-0.0172 5.49065,-0.0186 8.93086,-1.75405 13.26899,-5.13779 3.94893,-4.72369 5.57008,-8.89494 5.62208,-15.02456 -0.0275,-1.31538 -0.0279,-1.3147 -0.0549,-2.60404 0.002,-2.93747 -0.002,-5.87344 -0.0386,-8.81072 -0.0271,-2.09219 -0.0459,-4.18462 -0.0549,-6.27697 -0.013,-5.49215 -0.042,-10.98317 -0.0964,-16.475067 -0.0567,-5.68772 -0.0926,-11.375381 -0.11867,-17.063318 -0.0543,-12.248632 -0.1436,-24.496834 -0.2596,-36.745028 -27.37809,-0.04457 -54.75613,-0.07953 -82.13425,-0.100431 -13.31068,-0.01004 -26.62091,-0.02069 -39.93158,-0.04304 -11.69058,-0.02007 -23.38138,-0.03683 -35.07198,-0.04304 -6.17529,-0.0024 -12.35087,-0.0033 -18.52615,-0.01578 -5.90644,-0.01396 -11.81273,-0.0264 -17.71919,-0.02582 -2.17834,0.0011 -4.35602,0.002 -6.53436,0.0014 -3.03244,-0.01094 -6.06523,-0.02194 -9.09768,-0.01865 z"
       style="fill:#030303;fill-opacity:1"
       id="path25" /></g></svg>
