<svg xmlns="http://www.w3.org/2000/svg" xmlns:xlink="http://www.w3.org/1999/xlink" version="1.1" class="logosvg" id="Layer_1" x="0px" y="0px" width="100%" viewBox="0 0 1024 1024" enable-background="new 0 0 1024 1024" xml:space="preserve">  <defs>
       <linearGradient id="bgGradient" x1="0%" y1="0%" x2="100%" y2="100%">
      <stop offset="0%" stop-color="#e00425"/>
      <stop offset="50%" stop-color="#970741"/>
      <stop offset="100%" stop-color="#f44336"/>
    </linearGradient>
  </defs>

<svg xmlns="http://www.w3.org/2000/svg" viewBox="0 0 1024 1024" width="100%">
  <defs>
    <linearGradient id="bgGradient" x1="0%" y1="0%" x2="100%" y2="100%">
      <stop offset="0%" stop-color="#e00425"/>
      <stop offset="50%" stop-color="#970741"/>
      <stop offset="100%" stop-color="#f44336"/>
    </linearGradient>
  </defs>

  <!-- Rounded rectangle background -->
  <rect x="0" y="0" width="1024" height="1024" rx="128" ry="128" fill="url(#bgGradient)"/>

  <!-- Your existing logo paths (white) go here -->
  <path fill="#FCFCFC" d="M209.007858,793.985168 ..."/>
  <path fill="#FCFCFC" d="M464.011169,660.993896 ..."/>
</svg>

<path fill="#FCFCFC" opacity="1.000000" stroke="none" d=" M209.007858,793.985168   C204.972122,781.559998 200.389542,769.668274 197.149857,757.421204   C192.510223,739.882019 193.771393,721.782349 193.769058,703.851318   C193.753159,582.355591 193.738174,460.859924 193.774918,339.364227   C193.785507,304.320374 205.838547,273.628540 227.770233,246.586304   C244.001434,226.572906 263.410553,210.599686 287.080627,200.089661   C302.843933,193.090378 319.302124,189.021271 336.619904,189.018890   C494.947632,188.997055 653.275330,189.005936 811.603088,189.006531   C818.808960,189.006561 819.011047,189.197403 819.011719,196.219757   C819.015137,230.718536 819.000916,265.217316 819.017578,299.716095   C819.028992,323.394257 809.580688,343.329102 795.018433,361.369873   C782.549316,376.817688 766.605408,388.169556 750.667786,399.516235   C713.546570,425.944427 676.336731,452.248352 639.098572,478.511597   C637.321960,479.764618 634.930420,480.819916 632.821899,480.826080   C605.172913,480.906708 577.523254,480.798767 549.873901,480.704102   C509.417999,480.565643 468.962067,480.414734 428.506317,480.231415   C421.387665,480.199158 421.010223,479.721466 421.008972,472.392334   C421.006622,458.559479 421.521790,444.702972 420.885559,430.899445   C419.975952,411.165314 436.431061,394.169617 457.607483,394.193878   C543.104309,394.291901 628.601379,394.234528 714.098328,394.234528   C716.056396,394.234528 718.014526,394.234528 720.413208,394.234528   C720.107056,375.482666 717.524353,357.854187 708.129883,341.849792   C695.049988,319.567017 674.773804,307.682465 649.979858,303.324738   C641.230164,301.786957 632.083496,302.247711 623.117676,302.240173   C552.289490,302.180573 481.460907,302.108978 410.633209,302.316284   C389.488007,302.378174 370.927399,310.074615 354.763367,323.615967   C337.530548,338.052704 326.468567,356.285034 321.797302,378.243500   C320.564178,384.039978 319.857300,390.065948 319.849060,395.987823   C319.727966,482.984558 319.587250,569.982117 319.886261,656.978027   C319.965607,680.062927 329.385773,700.241333 343.715302,717.835693   C359.504944,737.222778 379.877289,750.036560 404.701141,754.267700   C415.414734,756.093750 426.531799,755.967285 437.467896,756.002075   C487.292633,756.160583 537.118530,756.163513 586.943420,756.010803   C611.558105,755.935364 633.571594,747.399353 654.032654,734.274902   C679.480835,717.951294 698.381592,695.538269 713.618042,669.813110   C716.207214,665.441467 718.996704,663.840088 724.294556,663.891663   C754.119690,664.181885 783.950806,664.000610 813.778137,663.762939   C817.652649,663.732056 819.364624,664.827576 819.341492,668.693604   C819.209717,690.682800 819.063232,712.672058 819.026489,734.661499   C818.974426,765.827026 819.014038,796.992615 819.013062,828.158203   C819.012329,851.295593 800.626038,873.240662 777.729126,876.934265   C770.244324,878.141663 762.598572,878.921936 755.025635,878.928223   C615.363953,879.044312 475.702118,879.104187 336.040619,878.936523   C308.221191,878.903137 283.235870,869.388672 260.294312,853.983948   C237.702621,838.814148 221.005585,818.645081 209.007858,793.985168  z"/>
<path fill="#FCFCFC" opacity="1.000000" stroke="none" d=" M464.011169,660.993896   C450.292908,662.183105 438.833099,658.678101 429.985962,648.326111   C424.421570,641.815247 421.142456,634.303040 421.048767,625.692627   C420.898376,611.869812 420.993622,598.044067 421.016052,584.219604   C421.024628,578.935242 422.252472,577.780090 427.455414,577.780945   C492.243073,577.791931 557.030762,577.797791 621.818420,577.788757   C627.520691,577.787964 628.748474,579.074707 629.017334,584.689575   C630.578857,617.293091 607.267334,649.258118 576.496094,658.120483   C570.993958,659.705200 565.145996,660.821655 559.447083,660.868652   C527.802734,661.129761 496.155121,660.993958 464.011169,660.993896  z"/>
</svg>