<?xml version="1.0" encoding="UTF-8" standalone="no"?>
<svg
   version="1.1"
   width="1024"
   height="1024"
   viewBox="0 0 1024 1024"
   id="svg16"
   sodipodi:docname="appicon.svg"
   inkscape:version="1.4.2 (f4327f4, 2025-05-13)"
   xmlns:inkscape="http://www.inkscape.org/namespaces/inkscape"
   xmlns:sodipodi="http://sodipodi.sourceforge.net/DTD/sodipodi-0.dtd"
   xmlns:xlink="http://www.w3.org/1999/xlink"
   xmlns="http://www.w3.org/2000/svg"
   xmlns:svg="http://www.w3.org/2000/svg">
  <sodipodi:namedview
     id="namedview16"
     pagecolor="#ffffff"
     bordercolor="#000000"
     borderopacity="0.25"
     inkscape:showpageshadow="2"
     inkscape:pageopacity="0.0"
     inkscape:pagecheckerboard="0"
     inkscape:deskcolor="#d1d1d1"
     inkscape:zoom="0.39404297"
     inkscape:cx="-1.2688971"
     inkscape:cy="630.64188"
     inkscape:window-width="1920"
     inkscape:window-height="1009"
     inkscape:window-x="-8"
     inkscape:window-y="-8"
     inkscape:window-maximized="1"
     inkscape:current-layer="svg16" />
  <defs
     id="defs3">
    <linearGradient
       id="bgGradient"
       x1="0%"
       y1="0%"
       x2="100%"
       y2="100%">
      <stop
         offset="0%"
         stop-color="#e00425"
         id="stop1" />
      <stop
         offset="50%"
         stop-color="#970741"
         id="stop2" />
      <stop
         offset="100%"
         stop-color="#f44336"
         id="stop3" />
    </linearGradient>
    <style
       id="style3">
			.logo path { fill:#FCFCFC; }
		</style>
    <linearGradient
       inkscape:collect="always"
       xlink:href="#bgGradient"
       id="linearGradient16"
       x1="0"
       y1="0"
       x2="929.32324"
       y2="935.31348"
       gradientTransform="matrix(1.5765265,0,0,1.3288198,2.5377943,83.747212)"
       gradientUnits="userSpaceOnUse" />
    <linearGradient
       inkscape:collect="always"
       xlink:href="#bgGradient"
       id="linearGradient17"
       x1="-52.564508"
       y1="0"
       x2="57.414645"
       y2="109.97915"
       gradientTransform="scale(0.77999399,1.2820612)"
       gradientUnits="userSpaceOnUse" />
  </defs>
  <!-- Rounded gradient app-icon background (square) -->
  <rect
     x="2.5377944"
     y="83.747215"
     width="1024.2417"
     height="863.31104"
     rx="100"
     ry="100"
     fill="url(#bgGradient)"
     id="rect3"
     style="fill:url(#linearGradient16);stroke-width:1.44738" />
  <!-- Original logo, centered and scaled into the square -->
  <g
     class="logo"
     id="g16"
     transform="matrix(1.3166563,0,0,1.361313,79.174104,142.34943)">
    <g
       id="g17">
      <path
         d="M 0,0 C 1.0435612,0.00464581 1.0435612,0.00464581 2.1082045,0.00938547 2.8462141,0.00485435 3.5842236,3.2324e-4 4.3445971,-0.00434518 6.8304476,-0.01705817 9.316081,-0.0153644 11.801961,-0.01371634 c 1.777036,-0.005981 3.55407,-0.01278552 5.3311,-0.02035522 4.836787,-0.01771163 9.673502,-0.02235756 14.510318,-0.02363158 4.033419,-0.0018958 8.066821,-0.0092498 12.100234,-0.01634419 9.514086,-0.01630136 19.028135,-0.02116738 28.542234,-0.01974714 9.82369,0.0012017 19.64716,-0.01990228 29.470793,-0.05148732 8.42552,-0.0261273 16.85097,-0.0368815 25.27653,-0.0356019 5.03599,5.1071e-4 10.07178,-0.005232 15.10773,-0.0263561 4.73604,-0.0193227 9.4717,-0.0195479 14.20775,-0.004967 1.73989,0.002097 3.4798,-0.002664 5.21965,-0.0147209 2.3724,-0.015378 4.74346,-0.006195 7.11583,0.009262 0.69125,-0.0102871 1.38249,-0.0205743 2.09469,-0.0311731 3.33571,0.0481471 4.98266,0.31891758 7.63429,2.41385019 1.74586,2.2899412 2.65164,4.2215183 3.56512,6.9487133 0.33137,0.9752163 0.66274,1.9504323 1.00415,2.9552003 0.34346,1.058603 0.68691,2.117205 1.04077,3.207886 0.36215,1.098885 0.72429,2.197771 1.09741,3.329956 1.22433,3.754412 2.42529,7.51594 3.62134,11.279419 0.45476,1.425285 0.90971,2.850511 1.36482,4.275681 1.22071,3.824566 2.43862,7.650019 3.65591,11.475673 1.02548,3.221671 2.05258,6.442825 3.07969,9.663978 3.15023,9.879627 6.2955,19.76083 9.43882,29.642659 0.71455,2.246304 1.42922,4.49257 2.14393,6.738823 9.71899,30.5468 19.3977,61.1062 29.04086,91.67703 5.28743,16.76055 10.60824,33.51004 15.96332,50.24909 3.71366,11.60974 7.40688,23.22564 11.07046,34.85128 0.38212,1.21253 0.76424,2.42506 1.15793,3.67434 1.54634,4.90768 3.09245,9.81544 4.63791,14.7234 5.56777,17.67518 11.22002,35.3203 17.02106,52.92038 0.25431,0.77493 0.50861,1.54986 0.77063,2.34827 0.46855,1.42743 0.9395,2.85409 1.41333,4.27978 1.52258,4.64513 1.52258,4.64513 1.52258,6.87024 0.94607,-0.005 1.89213,-0.009 2.86687,-0.014 23.02716,-0.11103 46.05428,-0.19317 69.08165,-0.24509 11.13591,-0.0258 22.27164,-0.0609 33.40744,-0.11814 9.70675,-0.0499 19.41337,-0.0821 29.12024,-0.0932 5.13906,-0.007 10.27777,-0.0218 15.41672,-0.0582 4.83945,-0.034 9.67839,-0.0444 14.51795,-0.0369 1.77371,-10e-4 3.54743,-0.0113 5.32104,-0.0305 16.63791,-0.1713 16.63791,-0.1713 21.8531,4.00701 4.99574,5.61016 6.03973,11.37567 6.16109,18.69058 0.0287,0.92415 0.0574,1.8483 0.087,2.80045 0.40068,15.29632 0.27638,30.6121 0.23555,45.9122 -0.0104,4.31844 -0.0148,8.63688 -0.0198,12.95532 -0.0106,8.41018 -0.0276,16.82032 -0.0488,25.23047 -36.04371,0.11446 -72.08739,0.20255 -108.13124,0.25533 -4.25573,0.006 -8.51146,0.0127 -12.7672,0.0193 -1.27085,0.002 -1.27085,0.002 -2.56738,0.004 -13.71662,0.0218 -27.43313,0.0612 -41.14969,0.10713 -14.07547,0.0468 -28.15088,0.0745 -42.22642,0.0847 -8.68474,0.007 -17.36919,0.0285 -26.05384,0.0691 -5.95618,0.0264 -11.9122,0.0344 -17.86844,0.0279 -3.43604,-0.003 -6.87157,0.002 -10.30753,0.0285 -3.72857,0.0249 -7.45588,0.0189 -11.18448,0.005 -1.08173,0.0146 -2.16346,0.0291 -3.27796,0.0441 -6.71852,-0.0665 -11.29855,-1.20616 -16.46582,-5.64541 -1.73671,-2.27162 -1.73671,-2.27162 -2.75415,-4.59399 -0.38616,-0.87327 -0.77233,-1.74654 -1.17019,-2.64627 -1.834,-4.70536 -3.47574,-9.44447 -5.00925,-14.25583 -0.35925,-1.10465 -0.7185,-2.2093 -1.08864,-3.34743 -1.14584,-3.52898 -2.28084,-7.06132 -3.41527,-10.59398 -0.72518,-2.24047 -1.45108,-4.48071 -2.17773,-6.7207 -2.4663,-7.61241 -4.92524,-15.2272 -7.38477,-22.8418 -4.62,-14.19 -9.24,-28.38 -14,-43 -48.18,0 -96.359998,0 -145.999998,0 -7.1358424,22.86943 -7.1358424,22.86943 -13.85937501,45.84766 -0.40063148,1.40968 -0.80179112,2.81922 -1.20343019,4.22862 -1.6528087,5.80236 -3.2982872,11.60678 -4.9367065,17.41322 -1.0221072,3.62086 -2.0514454,7.2396 -3.0850907,10.85718 -0.3838036,1.34856 -0.7649561,2.69787 -1.1431126,4.04802 -6.86657,24.51051 -6.86657,24.51051 -14.772285,29.6053 -2.348343,1.17417 -3.723575,1.12329 -6.340607,1.12026 -0.911478,10e-4 -1.822956,0.003 -2.762054,0.004 -1.002689,-0.004 -2.005379,-0.007 -3.038452,-0.0109 -1.053678,1.4e-4 -2.107356,2.9e-4 -3.192963,4.4e-4 -3.495433,-7e-4 -6.990813,-0.008 -10.486237,-0.0163 -2.418527,-0.002 -4.837056,-0.003 -7.255584,-0.004 -6.375387,-0.004 -12.750751,-0.0136 -19.126129,-0.0247 -6.501666,-0.0102 -13.003334,-0.0148 -19.505005,-0.0198 -12.764331,-0.0107 -25.528651,-0.0276 -38.292971,-0.0488 -0.82168,-3.34129 -1.11937,-5.64261 -0.1333,-8.94458 0.33114,-1.14062 0.33114,-1.14062 0.66896,-2.30427 0.25378,-0.83183 0.50756,-1.66365 0.76903,-2.52068 0.39825,-1.35704 0.39825,-1.35704 0.80455,-2.7415 0.5928,-2.01629 1.19067,-4.0311 1.79277,-6.04463 1.74628,-5.84523 3.45127,-11.70261 5.1644,-17.55762 0.38799,-1.32225 0.77605,-2.64449 1.16417,-3.96671 5.03772,-17.17929 9.90709,-34.40674 14.79075,-51.63031 1.0629,-3.74782 2.12678,-7.49536 3.19065,-11.24291 15.346695,-54.06133 30.661725,-108.13208 45.826749,-162.2447 6.972483,-24.87873 13.9974,-49.74261 21.022181,-74.60661 1.280568,-4.53258 2.561037,-9.06519 3.841436,-13.59782 0.253472,-0.89729 0.506945,-1.79457 0.768099,-2.71905 3.742882,-13.250612 7.478465,-26.503268 11.208463,-39.757515 0.468472,-1.66445 0.936948,-3.328899 1.405426,-4.993347 1.981985,-7.042174 3.963481,-14.084484 5.942987,-21.127355 0.796414,-2.83294 1.59351,-5.665688 2.390767,-8.498391 0.535764,-1.904511 1.070622,-3.809276 1.60544,-5.714052 0.919034,-3.264525 1.846692,-6.526472 2.776474,-9.787949 0.2747616,-0.985539 0.5495233,-1.971077 0.8326111,-2.9864811 0.2578628,-0.9020517 0.5157257,-1.8041034 0.7814026,-2.73349 0.2207267,-0.7829292 0.4414535,-1.5658585 0.668869,-2.3725128 C -6.1505672,0.07892203 -4.0371983,0.0411947 0,0 Z"
         fill="#091E2B"
         id="path3"
         transform="translate(147.97685,41.723189)" />
      <path
         d="m 0,0 c 0.90844605,-0.00170885 1.8168921,-0.0034177 2.7528668,-0.00517833 3.0324559,-0.00328427 6.0646887,0.0076913 9.0971242,0.01863658 2.178345,5.6435e-4 4.35669,2.471e-4 6.535034,-8.8501e-4 5.906455,-5.7361e-4 11.812829,0.01118213 17.719266,0.02514792 6.175284,0.01250592 12.350571,0.01367775 18.525866,0.01605081 11.690596,0.0062152 23.381154,0.02262651 35.071734,0.04269898 13.310669,0.02235784 26.621329,0.03335215 39.932009,0.04339087 27.37812,0.0209028 54.75621,0.0560796 82.1343,0.10064721 0.116,12.24819397 0.20477,24.49625597 0.25906,36.74488797 0.0261,5.687937 0.0614,11.375497 0.11814,17.063217 0.0544,5.4919 0.0842,10.983438 0.0972,16.475586 0.009,2.092343 0.0272,4.184667 0.0543,6.276856 0.0365,2.937279 0.0413,5.873076 0.039,8.810547 0.027,1.289337 0.027,1.289337 0.0545,2.604721 -0.052,6.129612 -1.67317,10.300493 -5.6221,15.024186 -4.33813,3.38374 -7.77798,5.11947 -13.26863,5.13803 -1.30578,0.008 -1.30578,0.008 -2.63795,0.0165 -1.4284,0.002 -1.4284,0.002 -2.88565,0.003 -1.00517,0.005 -2.01035,0.0102 -3.04598,0.0154 -2.18531,0.0107 -4.37063,0.0193 -6.55596,0.0261 -3.45906,0.0118 -6.91799,0.0312 -10.37699,0.0531 -9.83576,0.0617 -19.6715,0.11567 -29.5074,0.14902 -6.01414,0.0209 -12.02805,0.0562 -18.04206,0.10075 -2.29208,0.0142 -4.5842,0.0229 -6.87632,0.0261 -3.20779,0.005 -6.41497,0.0281 -9.62264,0.0553 -0.94619,-0.003 -1.89238,-0.006 -2.86724,-0.009 -5.187733,0.0655 -8.830151,0.52135 -13.313176,3.42561 -15.169917,16.01269 -6,45.49107 -6,63 64.844996,0.495 64.844996,0.495 130.999996,1 0.0825,15.015 0.165,30.03 0.25,45.5 0.0364,4.73021 0.0728,9.46043 0.11036,14.33398 0.0181,5.80371 0.0181,5.80371 0.0214,8.526 0.006,1.88969 0.0201,3.77936 0.0405,5.66895 0.0294,2.87279 0.0333,5.74463 0.0318,8.61755 0.0144,0.83311 0.0288,1.66621 0.0436,2.52456 -0.0443,6.29518 -1.55565,11.64242 -5.90976,16.35834 -4.44133,3.91774 -8.67665,5.71054 -14.55507,5.74909 -1.46176,0.0168 -1.46176,0.0168 -2.95304,0.0338 -1.58603,0.003 -1.58603,0.003 -3.20411,0.007 -1.12239,0.01 -2.24479,0.0201 -3.40119,0.0304 -3.70635,0.0309 -7.41263,0.0479 -11.11908,0.0648 -2.57119,0.0187 -5.14237,0.0383 -7.71354,0.0587 -6.07365,0.0461 -12.14729,0.0835 -18.22102,0.11667 -6.91661,0.0383 -13.83312,0.0877 -20.74965,0.13798 -14.22369,0.10325 -28.447428,0.19106 -42.671256,0.2726 -0.33,13.53 -0.66,27.06 -1,41 -0.66,0 -1.32,0 -2,0 C 66.460797,283.99917 53.342667,242.70072 40.347238,201.35958 39.215119,197.75824 38.082644,194.157 36.950128,190.55578 35.557145,186.12625 34.165826,181.6962 32.775812,177.26574 29.006566,165.26473 25.180447,153.2834 21.311289,141.31458 16.386211,126.07923 11.51801,110.82593 6.6579285,95.56974 5.9435525,93.327367 5.2290088,91.085048 4.5144196,88.842743 1.2638503,78.642581 -1.984757,68.441795 -5.2317963,58.240509 -5.8051974,56.439125 -5.8051974,56.439125 -6.3901825,54.601349 -8.3158079,48.550964 -10.240074,42.500151 -12.161575,36.448456 c -0.540075,-1.700742 -1.080452,-3.401387 -1.621155,-5.101929 -0.728846,-2.292826 -1.456368,-4.586067 -2.183441,-6.879455 -0.394131,-1.241851 -0.788262,-2.483702 -1.194336,-3.763184 C -20.831194,8.8368955 -20.831194,8.8368955 -20.231796,5.240509 -15.136721,-0.26217245 -6.9350626,-0.04812509 0,0 Z"
         fill="#091E2B"
         id="path4"
         transform="translate(370.2318,41.759491)" />
      <path
         d="m 0,0 c 0.99,0.33 1.98,0.66 3,1 1.0185638,2.4823713 1.8274133,4.8493188 2.5810547,7.4140625 0.2399507,0.7806214 0.4799013,1.5612429 0.7271232,2.3655195 0.7995962,2.611731 1.5815307,5.22842 2.3636971,7.845418 0.5598245,1.840445 1.1207581,3.680553 1.682739,5.52034 1.50252,4.929579 2.990096,9.86355 4.474625,14.798573 1.526414,5.066303 3.065289,10.128816 4.603378,15.191585 1.828906,6.02274 3.656489,12.045867 5.4776,18.070969 3.373438,11.159335 6.778887,22.307491 10.246033,33.438063 0.716499,2.30663 1.432971,4.61327 2.149414,6.91992 0.96254,3.09747 1.927374,6.1941 2.900269,9.28833 0.860963,2.74075 1.711585,5.4845 2.559692,8.22925 0.37131,1.16545 0.37131,1.16545 0.750122,2.35445 1.5982,5.22168 1.5982,5.22168 0.484253,8.56352 -28.05,0 -56.1,0 -85,0 1.124889,-7.87422 1.124889,-7.87422 2.081299,-11.10596 0.216421,-0.74037 0.432843,-1.48075 0.655823,-2.24356 0.23757,-0.79474 0.47514,-1.58947 0.719909,-2.40829 0.255053,-0.8683 0.510106,-1.73659 0.772888,-2.6312 0.856579,-2.91327 1.719699,-5.82457 2.582581,-8.73599 1.267732,-4.30407 2.532069,-8.60913 3.796875,-12.91406 0.341123,-1.159252 0.682246,-2.318502 1.033707,-3.512881 2.879793,-9.795398 5.724535,-19.600704 8.560043,-29.408997 0.447845,-1.548595 0.895696,-3.097189 1.343552,-4.645782 1.776436,-6.143471 3.552357,-12.287089 5.32579,-18.431427 1.052014,-3.644622 2.105723,-7.288751 3.1605,-10.932575 0.387563,-1.340044 0.774523,-2.680263 1.1607815,-4.020683 C -7.6984814,22.694739 -5.535619,15.399383 -3.2893066,8.1269531 -2.9695079,7.0814794 -2.9695079,7.0814794 -2.6432486,6.0148849 -1.1173649,1.1173649 -1.1173649,1.1173649 0,0 Z"
         fill="#FF0000"
         transform="translate(234,150)"
         style="fill:url(#linearGradient17)"
         id="path5" />
    </g>
    <path
       d="m 0,0 c 59.4,0 118.8,0 180,0 0.33,0.99 0.66,1.98 1,3 -0.91368,0.00239 -1.82735,0.00478 -2.76872,0.00724 -22.2164,0.059097 -44.4327,0.1346137 -66.64899,0.2284775 -10.74356,0.044994 -21.487097,0.084401 -32.230728,0.1107206 -9.36251,0.022951 -18.724915,0.056316 -28.087342,0.1022661 -4.958825,0.023972 -9.917544,0.042675 -14.876426,0.048912 -4.665424,0.00603 -9.330581,0.025968 -13.995906,0.056662 -1.714062,0.00881 -3.428159,0.012497 -5.142243,0.010733 -2.337331,-0.00165 -4.67384,0.014992 -7.011059,0.036264 C 8.2751674,3.608186 8.2751674,3.608186 6.2720833,3.6152391 2.8479474,4.0178797 1.4608682,4.6544303 -1,7 -0.67,4.69 -0.34,2.38 0,0 Z"
       fill="#18252C"
       transform="translate(143,42)"
       id="path6" />
    <path
       d="m 0,0 c 59.73,0 119.46,0 181,0 0,0.33 0,0.66 0,1 -0.91368,0.00239 -1.82735,0.00478 -2.76872,0.00724 -22.2164,0.059097 -44.4327,0.1346137 -66.64899,0.2284775 -10.74356,0.044994 -21.487097,0.084401 -32.230728,0.1107206 -9.36251,0.022951 -18.724915,0.056316 -28.087342,0.1022661 -4.958825,0.023972 -9.917544,0.042675 -14.876426,0.048912 -4.665424,0.00603 -9.330581,0.025968 -13.995906,0.056662 -1.714062,0.00881 -3.428159,0.012497 -5.142243,0.010733 -2.337331,-0.00165 -4.67384,0.014992 -7.011059,0.036264 C 8.2751674,1.608186 8.2751674,1.608186 6.2720833,1.6152391 2.8479474,2.0178797 1.4608682,2.6544303 -1,5 -0.67,3.35 -0.34,1.7 0,0 Z"
       fill="#102C3D"
       transform="translate(143,44)"
       id="path7" />
    <path
       d="M 0,0 C 1.2880507,4.2098107 0.3839742,6.7997588 -0.9375,11 -2.1759362,14.962996 -3,17.828072 -3,22 c 13.456258,0.06951 26.912474,0.122818 40.368876,0.155437 6.248362,0.01566 12.496602,0.03689 18.744894,0.07088 6.030025,0.0326 12.059931,0.05054 18.090038,0.05831 2.300497,0.0055 4.600988,0.01637 6.901436,0.03256 3.222385,0.02178 6.444282,0.02478 9.666729,0.02339 1.426357,0.01618 1.426357,0.01618 2.88153,0.03268 C 98.854202,22.34898 102.52228,21.952347 107,19 c 3.50175,-4.302151 5.21361,-8.81947 7,-14 0.97379,2.5967695 1.07793,3.7684287 0.17969,6.4375 C 111.29062,17.111837 108.86179,21.069106 103,24 c -1.4445,0.09196 -2.89318,0.121934 -4.340607,0.120255 -0.911478,0.0014 -1.822956,0.0027 -2.762054,0.0042 -1.002689,-0.0036 -2.005379,-0.0072 -3.038452,-0.0109 -1.053678,1.46e-4 -2.107356,2.92e-4 -3.192963,4.43e-4 -3.495433,-6.99e-4 -6.990813,-0.0085 -10.486237,-0.01631 -2.418527,-0.0019 -4.837056,-0.0033 -7.255584,-0.0043 -6.375387,-0.0038 -12.750751,-0.01365 -19.126129,-0.0247 C 46.296308,24.058448 39.79464,24.05387 33.292969,24.048828 20.528636,24.038093 7.7643193,24.021209 -5,24 -5.8408883,20.24385 -6.0100331,18.030099 -4.7851562,14.355469 -4.5112305,13.514355 -4.2373047,12.673242 -3.9550781,11.806641 -3.513252,10.510166 -3.513252,10.510166 -3.0625,9.1875 -2.7718164,8.3038477 -2.4811328,7.4201953 -2.1816406,6.5097656 -1.4649216,4.3361097 -0.73747903,2.1666822 0,0 Z"
       fill="#010101"
       transform="translate(18,480)"
       id="path8" />
    <path
       d="m 0,0 c 0.33,0 0.66,0 1,0 0,13.53 0,27.06 0,41 -0.66,0 -1.32,0 -2,0 -0.66,-2.97 -1.32,-5.94 -2,-9 0.33,0 0.66,0 1,0 0.025056,-0.933845 0.050112,-1.86769 0.075928,-2.829834 0.094942,-3.453418 0.1941849,-6.906656 0.2963868,-10.359863 0.043404,-1.496696 0.085075,-2.993442 0.125,-4.490235 0.057572,-2.147211 0.1213027,-4.294163 0.1862793,-6.4411618 C -1.2797479,6.5854126 -1.2430909,5.291919 -1.205322,3.9592285 -1,1 -1,1 0,0 Z"
       fill="#000103"
       transform="translate(451,326)"
       id="path9" />
    <path
       d="M 0,0 C 1.5900538,4.0101357 0.32609774,6.950998 -0.9375,10.9375 -2.2551753,15.113861 -3.2751256,18.606327 -3,23 -3.99,23 -4.98,23 -6,23 -5.3833486,17.606073 -4.120772,12.716047 -2.4375,7.5625 -2.2035352,6.830957 -1.9695703,6.0994141 -1.7285156,5.3457031 -1.1573278,3.5621982 -0.57936877,1.7808642 0,0 Z"
       fill="#080A0D"
       transform="translate(18,480)"
       id="path10" />
    <path
       d="M 0,0 C 2,2 2,2 2,5 2.66,5 3.32,5 4,5 6.0316595,9.334207 6.5206063,13.285962 7,18 6.34,18.33 5.68,18.66 5,19 4.1614231,16.397417 3.3289666,13.793144 2.5,11.1875 2.1422852,10.080518 2.1422852,10.080518 1.7773437,8.9511719 0.80059864,5.867448 0,3.2550419 0,0 Z"
       fill="#0D151C"
       transform="translate(409,235)"
       id="path11" />
    <path
       d="m 0,0 c 1,2 1,2 1,3 0.6503581,1.3413637 1.3162955,2.6753225 2,4 -4.75,4.875 -4.75,4.875 -7,6 0.2831793,-1.605687 0.5768779,-3.2095205 0.875,-4.8125 C -2.9625781,7.2941797 -2.8001563,6.4008594 -2.6328125,5.4804687 -2,3 -2,3 0,0 Z"
       fill="#071119"
       transform="translate(102,186)"
       id="path12" />
    <path
       d="M 0,0 C 0.99,0 1.98,0 3,0 3.365528,1.4137778 3.716955,2.8312058 4.0625,4.25 4.2597266,5.0389062 4.4569531,5.8278125 4.6601562,6.640625 5.0149727,9.1039482 4.7687754,10.656041 4,13 3.3294211,11.209794 2.6636531,9.4177851 2,7.625 1.62875,6.6272656 1.2575,5.6295313 0.875,4.6015625 0,2 0,2 0,0 Z"
       fill="#0E171D"
       transform="translate(320,426)"
       id="path13" />
    <path
       d="m 0,0 c 0.33,0 0.66,0 1,0 0,4.95 0,9.9 0,15 -0.99,0.495 -0.99,0.495 -2,1 -0.33,-1.98 -0.66,-3.96 -1,-6 0.33,0 0.66,0 1,0 0.33,-3.3 0.66,-6.6 1,-10 z"
       fill="#050B12"
       transform="translate(450,348)"
       id="path14" />
    <path
       d="M 0,0 C 0,3.3802352 -0.87455622,5.8346894 -2,9 -2.99,9 -3.98,9 -5,9 -4.5076923,3.4615385 -4.5076923,3.4615385 -1.9375,1.125 -1.298125,0.75375 -0.65875,0.3825 0,0 Z"
       fill="#112635"
       transform="translate(455,152)"
       id="path15" />
    <path
       d="M 0,0 C 3.7754539,1.0906867 6.4704347,1.9083091 9,5 5.1330432,5 2.4911548,3.5809003 -1,2 -0.67,1.34 -0.34,0.68 0,0 Z"
       fill="#0D1115"
       transform="translate(622,395)"
       id="path16" />
  </g>
</svg>
