<?xml version="1.0" encoding="UTF-8" standalone="no"?>
<svg
   version="1.1"
   width="1024"
   height="1024"
   viewBox="0 0 1024 1024"
   id="svg16"
   sodipodi:docname="logo.svg"
   inkscape:version="1.4.2 (f4327f4, 2025-05-13)"
   xmlns:inkscape="http://www.inkscape.org/namespaces/inkscape"
   xmlns:sodipodi="http://sodipodi.sourceforge.net/DTD/sodipodi-0.dtd"
   xmlns:xlink="http://www.w3.org/1999/xlink"
   xmlns="http://www.w3.org/2000/svg"
   xmlns:svg="http://www.w3.org/2000/svg">
  <sodipodi:namedview
     id="namedview16"
     pagecolor="#ffffff"
     bordercolor="#000000"
     borderopacity="0.25"
     inkscape:showpageshadow="2"
     inkscape:pageopacity="0.0"
     inkscape:pagecheckerboard="0"
     inkscape:deskcolor="#d1d1d1"
     inkscape:zoom="0.39404297"
     inkscape:cx="-26.64684"
     inkscape:cy="498.67658"
     inkscape:window-width="1920"
     inkscape:window-height="1009"
     inkscape:window-x="-8"
     inkscape:window-y="-8"
     inkscape:window-maximized="1"
     inkscape:current-layer="svg16" />
  <defs
     id="defs3">
    <linearGradient
       id="bgGradient"
       x1="0%"
       y1="0%"
       x2="100%"
       y2="100%">
      <stop
         offset="0%"
         stop-color="#e00425"
         id="stop1" />
      <stop
         offset="50%"
         stop-color="#970741"
         id="stop2" />
      <stop
         offset="100%"
         stop-color="#f44336"
         id="stop3" />
    </linearGradient>
    <style
       id="style3">
			.logo path { fill:#FCFCFC; }
		</style>
    <linearGradient
       inkscape:collect="always"
       xlink:href="#bgGradient"
       id="linearGradient16"
       x1="0"
       y1="0"
       x2="929.32324"
       y2="935.31348"
       gradientTransform="scale(1.5765265,1.3288198)"
       gradientUnits="userSpaceOnUse" />
    <linearGradient
       inkscape:collect="always"
       xlink:href="#bgGradient"
       id="linearGradient17"
       x1="-52.564508"
       y1="0"
       x2="57.414645"
       y2="109.97915"
       gradientTransform="scale(0.77999399,1.2820612)"
       gradientUnits="userSpaceOnUse" />
  </defs>
  <!-- Rounded gradient app-icon background (square) -->
  <rect
     x="0"
     y="0"
     width="1024.2417"
     height="1024.384"
     rx="100"
     ry="100"
     fill="url(#bgGradient)"
     id="rect3"
     style="fill:url(#linearGradient16);stroke-width:1.44738" />
  <!-- Original logo, centered and scaled into the square -->
  <g
     class="logo"
     id="g16"
     transform="matrix(1.3004175,0,0,1.3859693,84.444557,143.41108)">
    <g
       id="g17">
      <path
         d="m 318.75579,41.474869 -2.09456,0.03013 c -2.37237,-0.01546 -4.74346,-0.02406 -7.11586,-0.0086 -1.73985,0.01206 -3.48019,0.01644 -5.22008,0.01435 -4.73605,-0.01458 -9.47194,-0.0133 -14.20798,0.0057 -5.03595,0.02112 -10.07093,0.02634 -15.10692,0.02583 -8.42556,-0.0013 -16.85158,0.0097 -25.2771,0.03587 -9.82363,0.03158 -19.64697,0.05285 -29.47066,0.05165 -9.5141,-0.0014 -19.02797,0.0023 -28.54206,0.01865 -4.03341,0.0071 -8.06666,0.01532 -12.10008,0.01722 -4.83681,0.0013 -9.67381,0.0052 -14.51059,0.02295 -1.77703,0.0076 -3.5543,0.01554 -5.33133,0.02152 -2.48588,-0.0016 -4.97119,-0.0041 -7.45704,0.0086 l -2.23697,0.01435 -2.10791,-0.01004 c -4.03719,0.0412 -6.15103,0.07844 -7.69438,4.183691 l -0.66753,2.373053 -0.78175,2.733173 -0.83367,2.987121 c -0.92978,3.261477 -1.8564,6.523245 -2.77544,9.78777 -0.53481,1.904776 -1.06927,3.810043 -1.60503,5.714554 -0.79726,2.832703 -1.59483,5.665002 -2.39124,8.497942 -1.97951,7.042871 -3.96051,14.085751 -5.94249,21.127925 -0.46848,1.664452 -0.93779,3.328432 -1.40626,4.992882 -3.73,13.25425 -7.46567,26.50736 -11.20856,39.75797 -0.26115,0.92448 -0.51492,1.82154 -0.7684,2.71883 -1.2804,4.53263 -2.55995,9.06441 -3.84051,13.59699 -7.02478,24.864 -14.050233,49.72755 -21.022716,74.60628 -15.165024,54.11262 -30.479912,108.18438 -45.826607,162.24571 -1.06387,3.74755 -2.127889,7.49477 -3.190789,11.24259 -4.88366,17.22357 -9.753239,34.45113 -14.790959,51.63042 -0.38812,1.32222 -0.776477,2.64479 -1.164467,3.96704 -1.71313,5.85501 -3.417428,11.71164 -5.163708,17.55687 -0.6021,2.01353 -1.200627,4.02825 -1.793427,6.04454 -0.4063,1.38446 -0.405752,1.38474 -0.804002,2.74178 -0.26147,0.85703 -0.51462,1.689 -0.7684,2.52083 -0.33782,1.16365 -0.337872,1.16357 -0.669012,2.30419 -0.98607,3.30197 -0.689658,5.60286 0.132022,8.94415 12.76432,0.0212 25.529582,0.0381 38.293913,0.0488 6.501671,0.005 13.003531,0.01 19.505197,0.0201 6.375378,0.0111 12.75006,0.0204 19.125447,0.0244 2.418528,0.001 4.836772,0.002 7.255299,0.004 3.495419,0.008 6.990709,0.0165 10.486139,0.0172 1.08561,-1.5e-4 2.14008,-0.001 3.19375,-0.001 1.03308,0.004 2.03531,0.007 3.038,0.0115 0.9391,-10e-4 1.85061,-0.003 2.76209,-0.004 2.61703,0.003 3.99318,0.0537 6.34153,-1.12052 7.90571,-5.09479 7.9051,-5.09384 14.77167,-29.60435 0.37816,-1.35015 0.7599,-2.70027 1.1437,-4.04883 1.03365,-3.61758 2.06188,-7.23578 3.08398,-10.85664 1.63842,-5.80644 3.28394,-11.61104 4.93675,-17.4134 0.40164,-1.4094 0.80389,-2.81849 1.20452,-4.22817 6.72353,-22.97823 6.72354,-22.97899 13.85939,-45.84842 h 145.99897 l 14.00031,43.00047 c 2.45953,7.6146 4.91805,15.22859 7.38435,22.841 0.72665,2.23999 1.45245,4.48127 2.17763,6.72174 1.13443,3.53266 2.27042,7.06368 3.41626,10.59266 0.37014,1.13813 0.72957,2.24402 1.08882,3.34867 1.53351,4.81136 3.17395,9.55018 5.00795,14.25554 0.39786,0.89973 0.78424,1.77239 1.1704,2.64566 1.01744,2.32237 1.01796,2.3224 2.75467,4.59402 5.16727,4.43925 9.7472,5.57919 16.46572,5.64569 1.1145,-0.015 2.19657,-0.0299 3.2783,-0.0445 3.7286,0.0139 7.45625,0.0223 11.18482,-0.003 3.43596,-0.0265 6.87061,-0.0317 10.30665,-0.0287 5.95624,0.007 11.91283,-0.002 17.86901,-0.0287 8.68465,-0.0406 17.36817,-0.0633 26.05291,-0.0703 14.07554,-0.0102 28.15094,-0.0378 42.22641,-0.0847 13.71656,-0.0459 27.43431,-0.0844 41.15093,-0.10617 1.29653,-0.002 1.29543,-9e-5 2.56628,-0.003 4.25574,-0.007 8.51188,-0.0141 12.76761,-0.0201 36.04385,-0.0528 72.08708,-0.14092 108.13079,-0.25538 0.0212,-8.41015 0.0383,-16.81965 0.0489,-25.22983 0.005,-4.31844 0.0104,-8.63723 0.0208,-12.95567 0.0408,-15.3001 0.16482,-30.61524 -0.23586,-45.91156 -0.0296,-0.95215 -0.0588,-1.87645 -0.0875,-2.8006 -0.12136,-7.31491 -1.16481,-13.08015 -6.16055,-18.69031 -5.21519,-4.17831 -5.21551,-4.17852 -21.85342,-4.00722 -1.77361,0.0192 -3.54723,0.0291 -5.32094,0.0301 -4.83956,-0.007 -9.67857,0.003 -14.51802,0.0373 -5.13895,0.0364 -10.27789,0.0504 -15.41695,0.0574 -9.70687,0.0111 -19.41383,0.0434 -29.12058,0.0933 -11.1358,0.0572 -22.27021,0.0933 -33.40612,0.11908 -23.02737,0.0519 -46.05467,0.13431 -69.08183,0.24534 -0.97474,0.005 -1.92134,0.008 -2.86741,0.0129 0,-2.22511 6.1e-4,-2.22438 -1.52197,-6.86951 -0.47383,-1.42569 -0.94513,-2.85239 -1.41368,-4.27982 -0.26202,-0.79841 -0.51705,-1.57373 -0.77136,-2.34866 -5.80104,-17.60008 -11.45274,-35.24507 -17.02051,-52.92025 -1.54546,-4.90796 -3.09224,-9.81558 -4.63858,-14.72326 -0.39369,-1.24928 -0.77493,-2.46183 -1.15705,-3.67436 -3.66358,-11.62564 -7.35694,-23.24143 -11.0706,-34.85117 -5.35508,-16.73905 -10.67541,-33.48822 -15.96284,-50.24877 -9.64316,-30.57083 -19.32297,-61.13141 -29.04196,-91.67821 -0.71471,-2.24625 -1.42896,-4.49122 -2.14351,-6.73752 -3.14332,-9.88183 -6.28863,-19.76346 -9.43886,-29.64308 -1.02711,-3.221153 -2.05406,-6.442712 -3.07954,-9.664383 -1.21729,-3.825654 -2.43586,-7.650454 -3.65657,-11.47502 -0.45511,-1.42517 -0.90997,-2.850229 -1.36473,-4.275514 -1.19605,-3.763479 -2.39664,-7.525484 -3.62097,-11.279896 -0.37312,-1.132185 -0.73557,-2.231137 -1.09772,-3.330022 -0.35386,-1.090681 -0.6964,-2.149467 -1.03986,-3.20807 -0.34141,-1.004768 -0.67289,-1.98034 -1.00426,-2.955557 -0.91348,-2.727195 -1.82023,-4.658486 -3.56609,-6.948427 -2.65163,-2.094933 -4.29785,-2.36508 -7.63356,-2.413227 z"
         style="fill:#fcfcfc"
         id="path21" />
      <path
         d="m 372.98436,41.754642 -2.75319,0.0043 c -6.93506,-0.04813 -15.1355,-0.261591 -20.23058,5.241091 -0.59939,3.596386 -0.60005,3.596594 3.07064,15.463586 l 1.19413,3.763313 c 0.72708,2.293388 1.45472,4.586734 2.18356,6.87956 0.54071,1.700542 1.08128,3.40118 1.62136,5.101922 1.9215,6.051695 3.84627,12.101897 5.7719,18.152282 l 1.15853,3.639924 c 3.24704,10.20128 6.49536,20.40132 9.74593,30.60148 0.71458,2.24231 1.42913,4.48511 2.1435,6.72748 4.86009,15.25619 9.72793,30.50979 14.65301,45.74514 3.86916,11.96882 7.69593,23.94917 11.46518,35.95018 1.39001,4.43046 2.7813,8.86044 4.17428,13.28997 1.13252,3.60122 2.26486,7.20222 3.39698,10.80356 12.99543,41.34114 26.11237,82.64062 39.41981,123.88229 h 2.00111 l 0.99981,-41.00045 c 14.22382,-0.0815 28.44773,-0.16936 42.67142,-0.27261 6.91653,-0.0503 13.83315,-0.0994 20.74976,-0.13774 6.07373,-0.0332 12.14693,-0.0701 18.22058,-0.11621 2.57117,-0.0204 5.14248,-0.0401 7.71367,-0.0588 3.70645,-0.0169 7.4132,-0.0351 11.11955,-0.066 1.1564,-0.0103 2.27755,-0.0201 3.39994,-0.0301 1.61808,-0.004 1.61811,-0.004 3.20414,-0.007 1.49128,-0.017 1.49169,-0.0162 2.95345,-0.033 5.87842,-0.0385 10.11377,-1.83125 14.5551,-5.74899 4.35411,-4.71592 5.86555,-10.06368 5.90985,-16.35886 -0.0148,-0.85835 -0.0286,-1.69059 -0.043,-2.5237 10e-4,-2.87292 -0.003,-5.74567 -0.0326,-8.61846 -0.0204,-1.88959 -0.0341,-3.77896 -0.0401,-5.66865 -0.003,-2.72229 -0.004,-2.72292 -0.0222,-8.52663 -0.0376,-4.87355 -0.0734,-9.60281 -0.10977,-14.33302 l -0.2507,-45.49979 -130.99885,-1.00001 c 0,-17.50893 -9.17106,-46.98801 5.99886,-63.0007 4.48302,-2.90426 8.12576,-3.36065 13.31349,-3.42615 0.97486,0.003 1.92122,0.007 2.86741,0.01 3.20767,-0.0272 6.41501,-0.051 9.6228,-0.056 2.29212,-0.003 4.58495,-0.0116 6.87703,-0.0258 6.01401,-0.0446 12.02695,-0.0795 18.04109,-0.10044 9.8359,-0.0333 19.67199,-0.0875 29.50775,-0.14921 3.459,-0.0219 6.9173,-0.0413 10.37636,-0.0531 2.18533,-0.007 4.37131,-0.0151 6.55662,-0.0258 1.03563,-0.005 2.04025,-0.0108 3.04542,-0.0158 1.45725,-0.001 1.45829,-4.8e-4 2.88669,-0.003 1.33217,-0.008 1.3317,-0.009 2.63748,-0.0172 5.49065,-0.0186 8.93086,-1.75405 13.26899,-5.13779 3.94893,-4.72369 5.57008,-8.89494 5.62208,-15.02456 -0.0275,-1.31538 -0.0279,-1.3147 -0.0549,-2.60404 0.002,-2.93747 -0.002,-5.87344 -0.0386,-8.81072 -0.0271,-2.09219 -0.0459,-4.18462 -0.0549,-6.27697 -0.013,-5.49215 -0.042,-10.98317 -0.0964,-16.475067 -0.0567,-5.68772 -0.0926,-11.375381 -0.11867,-17.063318 -0.0543,-12.248632 -0.1436,-24.496834 -0.2596,-36.745028 -27.37809,-0.04457 -54.75613,-0.07953 -82.13425,-0.100431 -13.31068,-0.01004 -26.62091,-0.02069 -39.93158,-0.04304 -11.69058,-0.02007 -23.38138,-0.03683 -35.07198,-0.04304 -6.17529,-0.0024 -12.35087,-0.0033 -18.52615,-0.01578 -5.90644,-0.01396 -11.81273,-0.0264 -17.71919,-0.02582 -2.17834,0.0011 -4.35602,0.002 -6.53436,0.0014 -3.03244,-0.01094 -6.06523,-0.02194 -9.09768,-0.01865 z"
         style="fill:#fcfcfc"
         id="path25" />
      <path
         d="m 0,0 c 0.99,0.33 1.98,0.66 3,1 1.0185638,2.4823713 1.8274133,4.8493188 2.5810547,7.4140625 0.2399507,0.7806214 0.4799013,1.5612429 0.7271232,2.3655195 0.7995962,2.611731 1.5815307,5.22842 2.3636971,7.845418 0.5598245,1.840445 1.1207581,3.680553 1.682739,5.52034 1.50252,4.929579 2.990096,9.86355 4.474625,14.798573 1.526414,5.066303 3.065289,10.128816 4.603378,15.191585 1.828906,6.02274 3.656489,12.045867 5.4776,18.070969 3.373438,11.159335 6.778887,22.307491 10.246033,33.438063 0.716499,2.30663 1.432971,4.61327 2.149414,6.91992 0.96254,3.09747 1.927374,6.1941 2.900269,9.28833 0.860963,2.74075 1.711585,5.4845 2.559692,8.22925 0.37131,1.16545 0.37131,1.16545 0.750122,2.35445 1.5982,5.22168 1.5982,5.22168 0.484253,8.56352 -28.05,0 -56.1,0 -85,0 1.124889,-7.87422 1.124889,-7.87422 2.081299,-11.10596 0.216421,-0.74037 0.432843,-1.48075 0.655823,-2.24356 0.23757,-0.79474 0.47514,-1.58947 0.719909,-2.40829 0.255053,-0.8683 0.510106,-1.73659 0.772888,-2.6312 0.856579,-2.91327 1.719699,-5.82457 2.582581,-8.73599 1.267732,-4.30407 2.532069,-8.60913 3.796875,-12.91406 0.341123,-1.159252 0.682246,-2.318502 1.033707,-3.512881 2.879793,-9.795398 5.724535,-19.600704 8.560043,-29.408997 0.447845,-1.548595 0.895696,-3.097189 1.343552,-4.645782 1.776436,-6.143471 3.552357,-12.287089 5.32579,-18.431427 1.052014,-3.644622 2.105723,-7.288751 3.1605,-10.932575 0.387563,-1.340044 0.774523,-2.680263 1.1607815,-4.020683 C -7.6984814,22.694739 -5.535619,15.399383 -3.2893066,8.1269531 -2.9695079,7.0814794 -2.9695079,7.0814794 -2.6432486,6.0148849 -1.1173649,1.1173649 -1.1173649,1.1173649 0,0 Z"
         fill="#FF0000"
         transform="translate(234,150)"
         style="fill:url(#linearGradient17)"
         id="path5" />
    </g>
    <path
       d="m 0,0 c 59.4,0 118.8,0 180,0 0.33,0.99 0.66,1.98 1,3 -0.91368,0.00239 -1.82735,0.00478 -2.76872,0.00724 -22.2164,0.059097 -44.4327,0.1346137 -66.64899,0.2284775 -10.74356,0.044994 -21.487097,0.084401 -32.230728,0.1107206 -9.36251,0.022951 -18.724915,0.056316 -28.087342,0.1022661 -4.958825,0.023972 -9.917544,0.042675 -14.876426,0.048912 -4.665424,0.00603 -9.330581,0.025968 -13.995906,0.056662 -1.714062,0.00881 -3.428159,0.012497 -5.142243,0.010733 -2.337331,-0.00165 -4.67384,0.014992 -7.011059,0.036264 C 8.2751674,3.608186 8.2751674,3.608186 6.2720833,3.6152391 2.8479474,4.0178797 1.4608682,4.6544303 -1,7 -0.67,4.69 -0.34,2.38 0,0 Z"
       fill="#18252C"
       transform="translate(143,42)"
       id="path6" />
    <path
       d="m 0,0 c 59.73,0 119.46,0 181,0 0,0.33 0,0.66 0,1 -0.91368,0.00239 -1.82735,0.00478 -2.76872,0.00724 -22.2164,0.059097 -44.4327,0.1346137 -66.64899,0.2284775 -10.74356,0.044994 -21.487097,0.084401 -32.230728,0.1107206 -9.36251,0.022951 -18.724915,0.056316 -28.087342,0.1022661 -4.958825,0.023972 -9.917544,0.042675 -14.876426,0.048912 -4.665424,0.00603 -9.330581,0.025968 -13.995906,0.056662 -1.714062,0.00881 -3.428159,0.012497 -5.142243,0.010733 -2.337331,-0.00165 -4.67384,0.014992 -7.011059,0.036264 C 8.2751674,1.608186 8.2751674,1.608186 6.2720833,1.6152391 2.8479474,2.0178797 1.4608682,2.6544303 -1,5 -0.67,3.35 -0.34,1.7 0,0 Z"
       fill="#102C3D"
       transform="translate(143,44)"
       id="path7" />
    <path
       d="M 0,0 C 1.2880507,4.2098107 0.3839742,6.7997588 -0.9375,11 -2.1759362,14.962996 -3,17.828072 -3,22 c 13.456258,0.06951 26.912474,0.122818 40.368876,0.155437 6.248362,0.01566 12.496602,0.03689 18.744894,0.07088 6.030025,0.0326 12.059931,0.05054 18.090038,0.05831 2.300497,0.0055 4.600988,0.01637 6.901436,0.03256 3.222385,0.02178 6.444282,0.02478 9.666729,0.02339 1.426357,0.01618 1.426357,0.01618 2.88153,0.03268 C 98.854202,22.34898 102.52228,21.952347 107,19 c 3.50175,-4.302151 5.21361,-8.81947 7,-14 0.97379,2.5967695 1.07793,3.7684287 0.17969,6.4375 C 111.29062,17.111837 108.86179,21.069106 103,24 c -1.4445,0.09196 -2.89318,0.121934 -4.340607,0.120255 -0.911478,0.0014 -1.822956,0.0027 -2.762054,0.0042 -1.002689,-0.0036 -2.005379,-0.0072 -3.038452,-0.0109 -1.053678,1.46e-4 -2.107356,2.92e-4 -3.192963,4.43e-4 -3.495433,-6.99e-4 -6.990813,-0.0085 -10.486237,-0.01631 -2.418527,-0.0019 -4.837056,-0.0033 -7.255584,-0.0043 -6.375387,-0.0038 -12.750751,-0.01365 -19.126129,-0.0247 C 46.296308,24.058448 39.79464,24.05387 33.292969,24.048828 20.528636,24.038093 7.7643193,24.021209 -5,24 -5.8408883,20.24385 -6.0100331,18.030099 -4.7851562,14.355469 -4.5112305,13.514355 -4.2373047,12.673242 -3.9550781,11.806641 -3.513252,10.510166 -3.513252,10.510166 -3.0625,9.1875 -2.7718164,8.3038477 -2.4811328,7.4201953 -2.1816406,6.5097656 -1.4649216,4.3361097 -0.73747903,2.1666822 0,0 Z"
       fill="#010101"
       transform="translate(18,480)"
       id="path8" />
    <path
       d="m 0,0 c 0.33,0 0.66,0 1,0 0,13.53 0,27.06 0,41 -0.66,0 -1.32,0 -2,0 -0.66,-2.97 -1.32,-5.94 -2,-9 0.33,0 0.66,0 1,0 0.025056,-0.933845 0.050112,-1.86769 0.075928,-2.829834 0.094942,-3.453418 0.1941849,-6.906656 0.2963868,-10.359863 0.043404,-1.496696 0.085075,-2.993442 0.125,-4.490235 0.057572,-2.147211 0.1213027,-4.294163 0.1862793,-6.4411618 C -1.2797479,6.5854126 -1.2430909,5.291919 -1.205322,3.9592285 -1,1 -1,1 0,0 Z"
       fill="#000103"
       transform="translate(451,326)"
       id="path9" />
    <path
       d="M 0,0 C 1.5900538,4.0101357 0.32609774,6.950998 -0.9375,10.9375 -2.2551753,15.113861 -3.2751256,18.606327 -3,23 -3.99,23 -4.98,23 -6,23 -5.3833486,17.606073 -4.120772,12.716047 -2.4375,7.5625 -2.2035352,6.830957 -1.9695703,6.0994141 -1.7285156,5.3457031 -1.1573278,3.5621982 -0.57936877,1.7808642 0,0 Z"
       fill="#080A0D"
       transform="translate(18,480)"
       id="path10" />
    <path
       d="M 0,0 C 2,2 2,2 2,5 2.66,5 3.32,5 4,5 6.0316595,9.334207 6.5206063,13.285962 7,18 6.34,18.33 5.68,18.66 5,19 4.1614231,16.397417 3.3289666,13.793144 2.5,11.1875 2.1422852,10.080518 2.1422852,10.080518 1.7773437,8.9511719 0.80059864,5.867448 0,3.2550419 0,0 Z"
       fill="#0D151C"
       transform="translate(409,235)"
       id="path11" />
    <path
       d="m 0,0 c 1,2 1,2 1,3 0.6503581,1.3413637 1.3162955,2.6753225 2,4 -4.75,4.875 -4.75,4.875 -7,6 0.2831793,-1.605687 0.5768779,-3.2095205 0.875,-4.8125 C -2.9625781,7.2941797 -2.8001563,6.4008594 -2.6328125,5.4804687 -2,3 -2,3 0,0 Z"
       fill="#071119"
       transform="translate(102,186)"
       id="path12" />
    <path
       d="M 0,0 C 0.99,0 1.98,0 3,0 3.365528,1.4137778 3.716955,2.8312058 4.0625,4.25 4.2597266,5.0389062 4.4569531,5.8278125 4.6601562,6.640625 5.0149727,9.1039482 4.7687754,10.656041 4,13 3.3294211,11.209794 2.6636531,9.4177851 2,7.625 1.62875,6.6272656 1.2575,5.6295313 0.875,4.6015625 0,2 0,2 0,0 Z"
       fill="#0E171D"
       transform="translate(320,426)"
       id="path13" />
    <path
       d="m 0,0 c 0.33,0 0.66,0 1,0 0,4.95 0,9.9 0,15 -0.99,0.495 -0.99,0.495 -2,1 -0.33,-1.98 -0.66,-3.96 -1,-6 0.33,0 0.66,0 1,0 0.33,-3.3 0.66,-6.6 1,-10 z"
       fill="#050B12"
       transform="translate(450,348)"
       id="path14" />
    <path
       d="M 0,0 C 0,3.3802352 -0.87455622,5.8346894 -2,9 -2.99,9 -3.98,9 -5,9 -4.5076923,3.4615385 -4.5076923,3.4615385 -1.9375,1.125 -1.298125,0.75375 -0.65875,0.3825 0,0 Z"
       fill="#112635"
       transform="translate(455,152)"
       id="path15" />
    <path
       d="M 0,0 C 3.7754539,1.0906867 6.4704347,1.9083091 9,5 5.1330432,5 2.4911548,3.5809003 -1,2 -0.67,1.34 -0.34,0.68 0,0 Z"
       fill="#0D1115"
       transform="translate(622,395)"
       id="path16" />
  </g>
</svg>
